<svg xmlns="http://www.w3.org/2000/svg" xmlns:xlink="http://www.w3.org/1999/xlink" id="Layer_1" x="0" y="0" version="1.1" viewBox="0 0 496.36 500" xml:space="preserve" style="enable-background:new 0 0 496.36 500"><style type="text/css">.st0{fill:#e1e1e1}.st1{fill:#ececec}.st2{fill:#f5f5f5}.st3{fill:#fafafa}.st4{fill:#fff}.st5{fill:#1a2e35}.st6{fill:#375a64}.st7{fill:#80b3fc}.st8{opacity:.3}.st9{fill:#db8a76}.st10{fill:#b7615b}.st11{opacity:.6}</style><g><g><polygon points="247.21 48.04 248.83 30.83 239.84 31.03 235.09 16.44 236.12 35.07 245.24 34.84" class="st0"/><polygon points="243.06 50.52 236.74 40.68 232.04 44.54 223.42 38.76 231.74 48.24 236.5 44.31" class="st0"/><polygon points="253.04 49.29 260.11 42.24 256.05 39.01 259.32 30.78 252.9 39.43 257.04 42.7" class="st0"/></g><g><polygon points="189.3 127.35 179.23 113.29 172.57 119.34 159.42 111.45 172.41 124.83 179.15 118.67" class="st0"/><polygon points="187.79 131.94 176.57 128.66 175.55 134.66 165.25 135.95 177.76 137.65 178.77 131.56" class="st0"/></g><g><polygon points="294.27 125.32 304.33 111.26 310.99 117.31 324.14 109.42 311.15 122.8 304.41 116.64" class="st0"/><polygon points="295.77 129.91 307 126.63 308.01 132.62 318.31 133.92 305.81 135.62 304.79 129.53" class="st0"/></g><g><g><g><g><path d="M115.41,379.8c5.14-2.65,11.19-3,16.89-2.05c3.06,0.51,6.26,1.42,8.34,3.72c2.08,2.3,2.48,6.35,0.09,8.33 c-1.43,1.18-3.41,1.36-5.26,1.33c-4.46-0.05-9.42-0.84-12.99,1.85c-2.03,1.53-3.39,4.08-5.82,4.83 c-2.38,0.74-5.07-0.67-6.33-2.82c-1.26-2.15-1.3-4.83-0.72-7.26C109.62,387.75,110.24,382.47,115.41,379.8z" class="st1"/></g></g><g><g><path d="M103.65,357.08c3.14,4.49,9.25,3,12.08,0.26c2.83-2.74,4.03-6.71,5.12-10.49c2.49-8.65,5-17.72,3.15-26.53 c-0.55-2.63-1.54-5.26-3.39-7.21c-1.85-1.95-4.69-3.12-7.3-2.43c-3.08,0.81-4.99,3.83-6.37,6.7 c-4.06,8.43-6.22,17.78-6.25,27.14C100.66,348.89,101.18,353.47,103.65,357.08" class="st1"/></g></g><g><g><path d="M95.02,363.52c3.41-4.05,4.06-9.95,2.54-15.02c-1.52-5.07-4.95-9.38-8.9-12.91 c-4.63-4.13-10.08-7.34-15.93-9.4c-2.3-0.81-4.73-1.45-7.17-1.22c-2.43,0.23-4.88,1.48-6.01,3.64 c-1.68,3.2-0.07,7.08,1.67,10.24c3.06,5.58,6.57,10.91,10.47,15.94c3.14,4.04,6.73,8.03,11.51,9.86 c4.78,1.83,9.75,1.61,12.28-1.7" class="st1"/></g></g><g><g><g><path d="M103.43,424.76c0.06,0,0.15-0.72,0.28-2.04c0.14-1.48,0.33-3.35,0.54-5.56c0.26-2.34,0.6-5.13,1.25-8.16 c0.65-3.03,1.66-6.31,2.97-9.63c1.35-3.31,3-6.31,4.92-8.72c1.91-2.41,4.13-4.16,6.22-5.17c2.08-1.03,3.95-1.45,5.24-1.63 c1.3-0.13,2.03-0.24,2.03-0.29c0-0.06-0.73-0.07-2.07-0.03c-1.32,0.09-3.27,0.42-5.46,1.42c-2.2,0.98-4.56,2.75-6.56,5.21 c-2.02,2.45-3.73,5.53-5.1,8.89c-1.33,3.38-2.33,6.7-2.94,9.79c-0.62,3.09-0.9,5.9-1.08,8.26c-0.18,2.36-0.24,4.28-0.28,5.6 C103.36,424.02,103.38,424.75,103.43,424.76z" class="st0"/></g></g></g><g><g><g><path d="M103.82,420.48c0.03,0,0.05-0.33,0.05-0.95c0-0.71,0-1.61-0.01-2.71c-0.01-2.35-0.01-5.74,0.12-9.94 c0.21-8.39,0.93-17.42,2.33-30.15c1.32-11.97,3.09-25.9,4.97-34.96c0.4-2.06,0.81-3.91,1.19-5.54 c0.36-1.63,0.67-3.03,0.97-4.16c0.26-1.07,0.47-1.94,0.63-2.63c0.14-0.6,0.19-0.93,0.17-0.93c-0.03-0.01-0.14,0.3-0.33,0.89 c-0.21,0.68-0.47,1.54-0.79,2.59c-0.35,1.12-0.71,2.52-1.11,4.14c-0.42,1.62-0.87,3.47-1.31,5.52 c-1.85,8.21-3.81,19.68-5.22,32.44c-1.4,12.76-2.03,24.37-2.08,32.78c-0.05,4.21,0.04,7.61,0.15,9.96 c0.07,1.1,0.12,1.99,0.17,2.7C103.75,420.15,103.79,420.48,103.82,420.48z" class="st0"/></g></g></g><g><g><g><path d="M103.87,398.07c0.06,0,0.05-1.01-0.02-2.83c-0.1-1.82-0.35-4.44-0.87-7.66 c-0.54-3.21-1.3-7.02-2.49-11.15c-0.52-1.89-1.73-6.42-4.66-13.2c-3.87-9.18-9.13-16.68-13.7-21.33 c-1.07-1.23-2.27-2.12-3.22-3c-0.49-0.42-0.93-0.83-1.38-1.17c-0.45-0.31-0.86-0.6-1.25-0.86c-1.5-1.03-2.35-1.57-2.38-1.52 c-0.14,0.18,3.37,2.25,7.8,6.96c4.41,4.7,9.52,12.15,13.36,21.25c2.14,4.94,3.63,9.34,4.69,13.08 c1.22,4.1,2.04,7.87,2.65,11.04c0.58,3.18,0.92,5.78,1.13,7.58C103.69,397.07,103.81,398.07,103.87,398.07z" class="st0"/></g></g></g></g><g><g><polygon points="82.22 437.59 84.46 468.35 123.97 468.35 126.22 437.59" class="st0"/></g></g><g><g><rect width="52.53" height="12.12" x="78.4" y="425.47" class="st0"/></g></g><g><g><polygon points="78.4 467.17 78.4 470.53 80.87 470.53 130.06 470.53 130.06 467.17" class="st1"/></g></g><g><g><polygon points="83.29 476.44 80.87 470.53 128.18 470.53 125.36 476.44" class="st0"/></g></g><g><g><g><path d="M125.48,447.64c0.01,0.01-0.05,0.1-0.18,0.28c-0.16,0.21-0.35,0.47-0.59,0.78 c-0.56,0.72-1.33,1.7-2.3,2.95l-0.1,0.13l-0.1-0.14c-1.45-2-3.38-4.67-5.65-7.82h0.33c-1.68,2.38-3.56,5.03-5.57,7.88 l-0.17,0.25l-0.2-0.23c-2.05-2.44-4.29-5.1-6.6-7.86l0.38,0c-0.11,0.14-0.24,0.3-0.36,0.46c-2.05,2.57-4.03,5.05-5.9,7.4 l-0.2,0.25l-0.18-0.26c-2-2.84-3.88-5.49-5.57-7.88l0.32,0.02c-2.74,3.13-5.07,5.78-6.86,7.82l-0.12,0.14l-0.09-0.16 c-0.9-1.52-1.63-2.73-2.15-3.61c-0.22-0.39-0.41-0.71-0.55-0.96c-0.12-0.22-0.18-0.34-0.17-0.34c0.01-0.01,0.09,0.1,0.23,0.3 c0.16,0.24,0.36,0.55,0.61,0.92c0.55,0.86,1.31,2.05,2.25,3.54l-0.21-0.02c1.76-2.06,4.05-4.75,6.75-7.91l0.17-0.2l0.15,0.22 c1.71,2.38,3.6,5.02,5.62,7.85l-0.38-0.01c1.87-2.35,3.85-4.84,5.89-7.41c0.12-0.16,0.25-0.31,0.36-0.46l0.19-0.24l0.19,0.23 c2.31,2.76,4.54,5.42,6.58,7.87l-0.37,0.01c2.03-2.83,3.92-5.47,5.62-7.84l0.16-0.23l0.16,0.23c2.23,3.18,4.12,5.88,5.54,7.91 l-0.2-0.01c1.01-1.21,1.81-2.17,2.39-2.87c0.26-0.3,0.47-0.54,0.64-0.74C125.39,447.72,125.48,447.64,125.48,447.64z" class="st2"/></g></g></g><g><g><g><path d="M126.77,437.39c0,0.14-9.9,0.25-22.11,0.25c-12.21,0-22.11-0.11-22.11-0.25c0-0.14,9.9-0.25,22.11-0.25 C116.87,437.14,126.77,437.25,126.77,437.39z" class="st2"/></g></g></g><g><g><g><path d="M128.76,470.86c0,0.14-10.76,0.25-24.03,0.25c-13.27,0-24.03-0.11-24.03-0.25 c0-0.14,10.76-0.25,24.03-0.25C118,470.61,128.76,470.72,128.76,470.86z" class="st2"/></g></g></g></g><g><polygon points="61.51 472.31 61.51 40.12 56.17 40.12 56.17 472.4 11.94 475.72 56.17 475.72 61.51 475.72 105.75 475.72" class="st1"/><polygon points="28.3 2.47 8.43 91.25 109.25 91.25 86.58 2.74" class="st0"/><g><path d="M46.77,127.22c-0.23,0-0.39-10.9-0.36-24.34c0.03-13.44,0.24-24.34,0.47-24.34c0.23,0,0.39,10.89,0.36,24.34 C47.22,116.33,47,127.23,46.77,127.22z" class="st0"/></g><g><path d="M46.73,127.06c-0.01-0.11,0.72-0.03,1.04,0.9c0.14,0.43,0.16,1.06-0.26,1.62c-0.42,0.58-1.3,0.75-1.99,0.48 c-0.7-0.24-1.25-0.95-1.2-1.66c0.04-0.7,0.47-1.16,0.86-1.4c0.85-0.5,1.46-0.09,1.38-0.01c-0.03,0.12-0.53,0.02-1.03,0.49 c-0.24,0.22-0.45,0.57-0.44,0.93c0,0.35,0.28,0.7,0.72,0.87c0.44,0.16,0.88,0.07,1.11-0.19c0.25-0.26,0.31-0.67,0.28-0.99 C47.12,127.43,46.67,127.17,46.73,127.06z" class="st0"/></g></g><g><g><path d="M427.45,309.58c0.71-3.46,0.22-7.04,1-13.57c0.78-6.52,3.89-9.11,5.61-13.73c1.72-4.62,4.05-15.4,4.05-15.4 h-1.88c0,0-6.14,20.06-7.91,24.6c-1.77,4.54-1.71,8.66-2.02,12.79c-0.31,4.13-1.95,11.01-1.95,11.01s-2.27-23.25-3.2-31.42 c-0.93-8.17-0.51-24.05-0.51-24.05l-2.16-0.92v12.04c0,0,0.89,11.49,1.6,18.08c0.71,6.59,2.41,27.98,1.99,43.68 c-0.43,15.7,3.74,28.68,3.81,29.19c0.07,0.51,0.65,16.01,0.34,23.71c-0.31,7.69-0.49,38.09-0.17,39.45l6.85,1.63 c0,0-3.98-26.82-3.24-46.2c0.74-19.39-0.89-18.32-3.44-27.59c-2.55-9.27-1.75-34.41-1.75-34.41S426.74,313.03,427.45,309.58z" class="st0"/></g><g><g><g><path d="M435.33,269.38c0,0,9.8-2.87,16.02-10.76c6.22-7.89,10.28-14.35,16.74-17.45 c-12.43-5.5-20.08,5.5-26.3,8.85c-6.22,3.35-12.43,5.74-11.48,12.19C431.26,268.66,435.33,269.38,435.33,269.38z" class="st1"/></g><g><path d="M475.33,171.4c-0.51,2.08-1.26,4.48-2.22,7c-1.06,2.8-2.37,5.75-3.84,8.56c-1.53,2.92-3.25,5.69-5.09,8.03 c-1.94,2.48-4.01,4.47-6.12,5.6c-0.49,0.26-0.97,0.47-1.46,0.64c-10.52,3.59-15.78,6.69-15.78,6.69 c-3.48-6.86-4.07-12.62-3.38-17.34c0.33-2.23,0.95-4.23,1.67-6c0.83-2.03,1.81-3.76,2.7-5.21c0.52-0.86,1.01-1.63,1.41-2.29 c0.42-0.7,0.85-1.41,1.31-2.13c2.22-3.49,4.95-7.15,8.87-10.64c0.77-0.7,1.6-1.38,2.48-2.06c1.03-0.79,2.18-1.43,3.41-1.96 c6.2-2.68,14.05-2.35,14.05-2.35s1.43,1.68,2.63,7.42c0.02,0.12,0.04,0.24,0.06,0.38C476.17,167.01,475.92,169,475.33,171.4z" class="st1"/></g><g><path d="M448.96,227.78c0,0,17.21-11.72,38.97-9.56c-11.72-11.48-21.28-11-29.41-6.93 C450.39,215.35,445.37,218.45,448.96,227.78z" class="st1"/></g><g><path d="M429.11,209.13c0,0-8.37-10.76-19.84-13.63c-11.48-2.87-24.63-2.39-24.63-2.39s6.46-9.32,20.56-8.61 c14.11,0.72,18.41,4.3,20.8,9.09C428.4,198.37,431.03,203.63,429.11,209.13z" class="st1"/></g><g><path d="M427.44,244.03c-0.04,1.47-0.09,2.87-0.19,4.2c-0.51,7.09-2.14,11.98-8.18,12.78 c0,0-8.61-2.15-11.96-10.52c-3.34-8.36-1.43-9.8-6.46-15.3c-5.02-5.5-7.65-19.13-7.65-19.13c0.01,0,0.03-0.01,0.05-0.01 c0.72-0.19,9.18-2.2,17.64,1.69c0.13,0.06,0.27,0.12,0.39,0.19C419.79,222.18,427.68,234.85,427.44,244.03z" class="st1"/></g><g><path d="M404.73,269.14c0,0-1.43,1.92-10.28,2.63c-8.85,0.72-11,7.89-21.05,9.56 c-10.04,1.68-11.48,1.43-15.78-1.19c1.95-6.04,6.81-7.85,11.23-11.33c1.37-1.07,2.7-2.3,3.88-3.87 c0.15-0.19,0.29-0.38,0.43-0.58c1.83-2.62,4.84-4.38,8.23-5.42c0,0,0,0,0.01,0c2.53-0.77,5.27-1.15,7.88-1.17 c3.48-0.04,6.74,0.52,8.99,1.56C404.49,262.21,404.49,265.8,404.73,269.14z" class="st1"/></g></g><g><g><path d="M459.85,437.61c-1.33,12-4.91,23.19-11.02,33.47c-1.63,2.76-5.3,4.54-9.36,4.54h-18.49 c-4.06,0-7.73-1.78-9.36-4.54c-6.11-10.28-9.69-21.47-11.02-33.47c-0.5-4.53-0.7-9.17-0.58-13.93h60.42 C460.55,428.44,460.35,433.08,459.85,437.61z" class="st0"/></g><g><path d="M460.57,437.61c-1.37,12.29-5.03,23.75-11.29,34.28c-1.67,2.82-5.43,4.65-9.59,4.65h-18.94 c-4.16,0-7.91-1.83-9.59-4.65c-6.26-10.53-9.92-21.99-11.29-34.28H460.57z" class="st1"/></g></g></g><g><path d="M455.75,369.65c-4.9-5.12-11.92-8.33-19-8.02l-0.19,0.18c-1.44,7.22,1.87,14.9,7.43,19.72 c5.56,4.82,13.07,7,20.43,7.14C463.52,381.63,460.65,374.76,455.75,369.65z" class="st1"/></g><g><path d="M413.08,377.13c-2.88-0.56-5.85,0.12-8.63,1.06c-6.57,2.22-12.64,5.92-17.62,10.75 c5.92,2.05,12.12,3.94,18.35,3.24c6.23-0.69,12.5-4.62,14.06-10.69C418.68,378.62,415.96,377.69,413.08,377.13z" class="st1"/></g><g><path d="M371.3,339.83c1.33,2.29,3.7,3.77,6.12,4.83c2.42,1.07,4.98,1.81,7.28,3.11c4.13,2.33,7.12,6.26,10.97,9.03 c5.46,3.92,12.68,5.28,19.2,3.62c1.09-6.61-1.23-13.62-5.77-18.55c-4.54-4.93-11.15-7.79-17.85-8.11 c-6.7-0.32-13.42,1.82-18.94,5.62" class="st1"/></g><g><path d="M432.36,347.43c-2.41-5.91-0.02-13.79,4.63-18.17c3.03-2.86,7.04-4.4,10.96-5.83 c3.27-1.19,6.56-2.35,9.85-3.47c0.78-0.27,1.65-0.52,2.4-0.18c1.11,0.52,1.26,2.03,1.19,3.25c-0.27,4.99-1.48,9.98-4.02,14.28 c-2.53,4.3-6.46,7.88-11.18,9.5C441.48,348.45,436.47,350.26,432.36,347.43" class="st1"/></g><g><path d="M413.62,325.31c-0.31-2.95-2.34-5.53-4.88-7.07c-2.54-1.54-5.54-2.15-8.49-2.39 c-6.99-0.57-14.13,0.82-20.39,3.98c5.64,3.84,11.85,6.84,18.37,8.85c2.71,0.84,5.55,1.51,8.37,1.19 c2.82-0.32,5.64-1.79,6.93-4.32" class="st1"/></g><g><path d="M413.6,294.04c-5.03-2.96-10.85-4.34-16.65-5.02c0.78,6.12,2.08,12.61,6.41,17 c2.59,2.62,6.15,4.27,9.83,4.54c3.68,0.27,8.12-0.68,11.07-2.89v-0.31C422.84,301.7,418.64,297,413.6,294.04z" class="st1"/></g><g><path d="M444.84,281.52c-3.16,2.09-3.42,6.89-1.58,10.19c1.84,3.31,5.16,5.47,8.35,7.5 c4.17,2.65,8.36,5.31,12.89,7.27c5.81,2.51,12.21,3.88,17.37,7.56c0.56-6.92-0.25-14.05-3.15-20.35 c-2.9-6.31-8.02-11.73-14.48-14.25c-6.47-2.52-14.27-1.85-19.79,2.36" class="st1"/></g><g><g><path d="M445.1,282.88c0.05,0.1-1.55,0.78-3.86,2.3c-1.16,0.75-2.47,1.75-3.84,2.96c-1.34,1.23-2.73,2.69-4.03,4.35 c-1.27,1.68-2.32,3.4-3.16,5.02c-0.81,1.63-1.44,3.16-1.86,4.48c-0.86,2.63-1.1,4.35-1.21,4.33c-0.04-0.01,0-0.44,0.1-1.21 c0.05-0.39,0.12-0.86,0.25-1.4c0.13-0.54,0.24-1.17,0.46-1.83c0.38-1.35,0.97-2.92,1.77-4.6c0.83-1.66,1.88-3.42,3.18-5.13 c1.32-1.7,2.74-3.17,4.13-4.4c1.41-1.21,2.77-2.19,3.98-2.91c0.59-0.39,1.16-0.66,1.65-0.92c0.49-0.27,0.93-0.46,1.29-0.61 C444.68,283,445.09,282.85,445.1,282.88z" class="st0"/></g></g><g><g><path d="M474.89,302.03c-0.04,0.02-0.38-0.42-0.98-1.23c-0.61-0.8-1.49-1.96-2.66-3.33 c-2.32-2.74-5.82-6.31-10.27-9.5c-2.22-1.6-4.43-3-6.6-3.94c-2.16-0.94-4.26-1.39-6.04-1.38c-1.78-0.02-3.2,0.35-4.13,0.7 c-0.93,0.36-1.41,0.66-1.43,0.61c-0.01-0.02,0.1-0.1,0.32-0.26c0.22-0.15,0.56-0.35,1.03-0.57c0.92-0.42,2.37-0.87,4.21-0.9 c1.83-0.06,4.03,0.36,6.25,1.3c2.23,0.93,4.49,2.34,6.73,3.96c4.5,3.23,7.99,6.89,10.25,9.71c1.13,1.41,1.97,2.62,2.52,3.46 C474.65,301.52,474.92,302.01,474.89,302.03z" class="st0"/></g></g><g><g><path d="M457.52,244.19c0.05,0.09-1.61,1.08-4.12,2.95c-2.5,1.86-5.79,4.67-8.94,8.25 c-3.14,3.58-5.5,7.21-7.02,9.93c-1.53,2.72-2.3,4.5-2.39,4.46c-0.04-0.02,0.13-0.47,0.45-1.29c0.32-0.82,0.85-1.98,1.58-3.37 c1.44-2.79,3.78-6.5,6.95-10.12c3.18-3.61,6.55-6.41,9.14-8.19c1.29-0.9,2.37-1.58,3.14-2 C457.07,244.37,457.5,244.15,457.52,244.19z" class="st0"/></g></g><g><g><path d="M404.46,221.89c0.01-0.02,0.15,0.06,0.4,0.21c0.25,0.16,0.63,0.38,1.09,0.72c0.93,0.65,2.22,1.66,3.69,3.07 c2.93,2.78,6.47,7.33,8.64,13.18c2.17,5.85,2.44,11.61,2.03,15.63c-0.2,2.02-0.52,3.64-0.8,4.73c-0.13,0.55-0.27,0.97-0.36,1.25 c-0.09,0.28-0.15,0.43-0.17,0.42c-0.05-0.01,0.09-0.62,0.3-1.73c0.21-1.1,0.47-2.71,0.61-4.72c0.31-3.99-0.03-9.64-2.16-15.39 c-2.13-5.75-5.55-10.26-8.38-13.09c-1.41-1.43-2.65-2.48-3.54-3.18C404.93,222.3,404.43,221.93,404.46,221.89z" class="st0"/></g></g><g><g><path d="M377.48,265.66c-0.02-0.02,0.25-0.37,0.82-0.92c0.57-0.56,1.47-1.29,2.7-2.02 c2.42-1.47,6.41-2.79,10.8-2.15c4.39,0.65,7.83,3.06,9.73,5.17c0.97,1.05,1.62,2.02,2.01,2.71c0.39,0.7,0.55,1.11,0.52,1.12 c-0.1,0.07-0.86-1.55-2.83-3.55c-1.93-1.98-5.29-4.25-9.51-4.87c-4.23-0.61-8.09,0.59-10.51,1.93 C378.74,264.42,377.56,265.75,377.48,265.66z" class="st0"/></g></g><g><g><path d="M423.82,306.86c-0.07,0.14-4.15-1.77-9.1-4.29c-4.95-2.51-8.91-4.66-8.83-4.81 c0.07-0.14,4.15,1.77,9.1,4.29C419.94,304.56,423.89,306.72,423.82,306.86z" class="st0"/></g></g><g><g><path d="M389.31,318.51c0-0.04,0.36-0.08,1.01-0.1c0.65-0.04,1.6-0.03,2.76,0.03c2.33,0.12,5.55,0.54,8.99,1.51 c3.44,0.98,6.4,2.3,8.45,3.43c1.02,0.56,1.83,1.05,2.37,1.42c0.54,0.37,0.83,0.58,0.81,0.62c-0.05,0.08-1.29-0.65-3.37-1.67 c-2.08-1.02-5.03-2.27-8.42-3.23c-3.39-0.96-6.56-1.44-8.86-1.66C390.75,318.63,389.31,318.61,389.31,318.51z" class="st0"/></g></g><g><g><path d="M457.58,322.33c0.02,0.04-0.4,0.32-1.17,0.8c-0.78,0.48-1.88,1.19-3.23,2.11 c-2.69,1.83-6.27,4.57-9.83,8.03c-3.55,3.47-6.37,6.99-8.27,9.63c-0.95,1.32-1.69,2.41-2.19,3.18c-0.5,0.76-0.8,1.17-0.83,1.15 c-0.03-0.02,0.19-0.47,0.64-1.27c0.44-0.8,1.13-1.93,2.04-3.29c1.82-2.72,4.62-6.31,8.2-9.82c3.59-3.49,7.24-6.21,10.01-7.96 c1.38-0.88,2.53-1.54,3.34-1.96C457.1,322.51,457.56,322.29,457.58,322.33z" class="st0"/></g></g><g><g><path d="M379.48,339.43c0-0.04,0.61-0.06,1.72-0.07c1.11,0,2.71,0.02,4.69,0.13c1.98,0.12,4.34,0.33,6.92,0.89 c2.57,0.55,5.37,1.49,7.98,3.09c2.61,1.6,4.75,3.61,6.49,5.59c1.74,1.98,3.09,3.93,4.19,5.58c1.09,1.66,1.91,3.03,2.47,3.99 c0.55,0.96,0.84,1.5,0.81,1.52c-0.03,0.02-0.39-0.48-1-1.4c-0.62-0.92-1.49-2.26-2.62-3.88c-1.13-1.61-2.51-3.52-4.25-5.45 c-1.73-1.93-3.84-3.89-6.39-5.45c-2.55-1.55-5.27-2.49-7.8-3.06c-2.53-0.58-4.87-0.83-6.83-1c-1.97-0.16-3.56-0.24-4.67-0.31 C380.09,339.52,379.48,339.47,379.48,339.43z" class="st0"/></g></g><g><g><path d="M419.3,381.13c0,0.09-1.31,0.09-3.4,0.24c-2.09,0.15-4.98,0.5-8.09,1.26c-3.11,0.77-5.83,1.78-7.76,2.62 c-1.93,0.84-3.08,1.44-3.13,1.36c-0.02-0.04,0.25-0.22,0.75-0.54c0.5-0.32,1.25-0.73,2.2-1.2c1.9-0.94,4.64-2.04,7.79-2.81 c3.15-0.77,6.09-1.06,8.21-1.11c1.06-0.02,1.92,0,2.51,0.04C418.97,381.04,419.3,381.09,419.3,381.13z" class="st0"/></g></g><g><g><path d="M459.5,385.61c-0.11,0.11-5.45-5.02-11.92-11.46c-6.47-6.45-11.62-11.76-11.51-11.88 c0.11-0.11,5.45,5.02,11.92,11.46C454.46,380.18,459.61,385.49,459.5,385.61z" class="st0"/></g></g><g><g><path d="M437.61,362.32c-0.02,0.18-2.2-0.11-4.72,0.68c-2.53,0.74-4.19,2.19-4.31,2.05 c-0.12-0.08,1.45-1.82,4.14-2.61C435.39,361.62,437.67,362.19,437.61,362.32z" class="st0"/></g></g><g><g><path d="M429.27,375.62c-0.09,0.04-0.64-1.05-1.75-2.65c-1.1-1.61-2.85-3.67-5.04-5.7 c-2.19-2.02-4.34-3.68-5.89-4.9c-1.55-1.21-2.5-1.97-2.45-2.04c0.05-0.06,1.08,0.58,2.7,1.71c1.61,1.13,3.81,2.75,6.04,4.8 c2.22,2.05,3.96,4.2,4.99,5.9c0.52,0.84,0.9,1.55,1.11,2.06C429.21,375.32,429.31,375.61,429.27,375.62z" class="st0"/></g></g><g><g><path d="M427.04,380.82c0.05,0.14-1.77,0.8-4.13,0.7c-2.36-0.09-4.12-0.89-4.06-1.03c0.05-0.17,1.83,0.36,4.08,0.44 C425.19,381.03,427,380.65,427.04,380.82z" class="st0"/></g></g><g><g><path d="M435.5,342.73c0.08,0.06-0.67,1.17-1.72,3.05c-1.05,1.88-2.34,4.58-3.36,7.7 c-1.01,3.13-1.54,6.07-1.79,8.21c-0.26,2.14-0.3,3.48-0.39,3.48c-0.04,0-0.07-0.34-0.09-0.94c-0.03-0.61-0.01-1.49,0.07-2.58 c0.15-2.17,0.62-5.17,1.65-8.35c1.03-3.17,2.41-5.88,3.56-7.73c0.58-0.93,1.08-1.65,1.45-2.13 C435.24,342.96,435.46,342.71,435.5,342.73z" class="st0"/></g></g><g><g><path d="M423.53,336.32c-0.09,0.03-0.34-0.84-1.04-2.09c-0.68-1.25-1.89-2.85-3.52-4.3 c-1.63-1.46-3.3-2.57-4.5-3.38c-1.2-0.81-1.94-1.33-1.9-1.4c0.04-0.07,0.85,0.33,2.12,1.05c1.26,0.73,2.99,1.8,4.67,3.3 c1.68,1.5,2.88,3.2,3.5,4.55C423.49,335.38,423.6,336.31,423.53,336.32z" class="st0"/></g></g><g><g><path d="M421.71,287.1c-0.09,0.04-0.8-1.31-2.14-3.38c-1.33-2.07-3.34-4.82-5.92-7.54 c-2.59-2.72-5.24-4.86-7.24-6.3c-2-1.44-3.31-2.22-3.27-2.3c0.02-0.04,0.37,0.13,0.98,0.45c0.62,0.32,1.48,0.83,2.52,1.51 c2.08,1.36,4.8,3.48,7.43,6.23c2.62,2.76,4.6,5.59,5.85,7.73c0.63,1.07,1.1,1.96,1.39,2.59 C421.6,286.73,421.74,287.08,421.71,287.1z" class="st0"/></g></g><g><g><path d="M463.99,220.68c0.01,0.02-0.22,0.13-0.67,0.33c-0.5,0.22-1.16,0.5-1.97,0.84c-1.7,0.73-4.19,1.76-7.15,3.24 c-2.94,1.49-6.4,3.45-9.65,6.37c-3.24,2.92-6.24,6.72-8.85,11.03c-2.62,4.32-4.69,8.68-6.57,12.64 c-1.87,3.95-3.56,7.52-4.99,10.54c-1.42,2.94-2.58,5.35-3.41,7.09c-0.39,0.79-0.71,1.42-0.95,1.91 c-0.22,0.43-0.35,0.66-0.37,0.65c-0.02-0.01,0.07-0.25,0.26-0.7c0.22-0.5,0.5-1.15,0.86-1.96c0.8-1.76,1.9-4.19,3.24-7.16 c1.4-3.04,3.05-6.62,4.88-10.59c1.86-3.98,3.92-8.36,6.56-12.72c2.63-4.35,5.68-8.2,8.99-11.13c3.32-2.95,6.84-4.89,9.82-6.34 c3-1.44,5.51-2.41,7.25-3.08c0.83-0.31,1.49-0.55,2.01-0.74C463.74,220.74,463.99,220.66,463.99,220.68z" class="st0"/></g></g><g><g><path d="M424.42,198.83c0.04-0.02,0.34,0.51,0.87,1.48c0.54,0.97,1.25,2.41,2.08,4.21c1.66,3.6,3.68,8.71,5.3,14.55 c1.61,5.84,2.51,11.26,2.94,15.21c0.21,1.97,0.34,3.57,0.38,4.68c0.05,1.11,0.06,1.72,0.02,1.72s-0.12-0.61-0.24-1.7 c-0.11-1.1-0.3-2.69-0.56-4.65c-0.53-3.91-1.49-9.29-3.09-15.1c-1.61-5.8-3.56-10.91-5.12-14.54c-0.78-1.81-1.43-3.27-1.91-4.27 C424.62,199.41,424.38,198.85,424.42,198.83z" class="st0"/></g></g><g><g><path d="M462.08,168.79c0.02,0.01-0.1,0.22-0.33,0.62c-0.27,0.45-0.61,1.02-1.03,1.72 c-0.9,1.49-2.25,3.62-3.82,6.31c-3.18,5.34-7.45,12.82-11.5,21.4c-2,4.3-3.76,8.47-5.19,12.32c-1.41,3.86-2.49,7.4-3.29,10.4 c-0.79,3-1.27,5.48-1.58,7.19c-0.14,0.81-0.25,1.46-0.34,1.97c-0.08,0.45-0.13,0.69-0.15,0.68c-0.02,0-0.01-0.24,0.04-0.7 c0.05-0.46,0.11-1.13,0.23-1.99c0.25-1.72,0.66-4.22,1.41-7.25c0.75-3.03,1.8-6.6,3.18-10.49c1.41-3.88,3.16-8.07,5.16-12.38 c4.06-8.61,8.39-16.07,11.67-21.37c1.62-2.66,3.02-4.76,3.98-6.21c0.46-0.68,0.83-1.23,1.12-1.66 C461.91,168.98,462.06,168.78,462.08,168.79z" class="st0"/></g></g></g><g><g><g><g><g><g><g><rect width="90.4" height="94.24" x="389.93" y="13.69" class="st0"/></g></g></g></g></g><g><g><g><g><g><rect width="90.4" height="94.24" x="383.81" y="13.69" class="st3"/></g></g></g></g><g><g><g><g><path d="M474.24,107.96h-90.46V13.66h90.46V107.96z M383.84,107.9h90.35V13.72h-90.35V107.9z" class="st0"/></g></g></g></g></g><g><g><g><g><g><rect width="66.1" height="68.9" x="395.96" y="26.36" class="st3"/></g></g></g></g></g><g><g><g><g><g><g><path d="M395.96,95.72c0.05,0.06-0.58,0.78-1.63,1.9c-1.06,1.11-2.54,2.62-4.2,4.26 c-1.66,1.64-3.19,3.1-4.32,4.13c-1.13,1.04-1.85,1.65-1.91,1.59c-0.06-0.06,0.57-0.77,1.62-1.89 c1.06-1.11,2.54-2.63,4.21-4.27c1.67-1.64,3.2-3.1,4.33-4.14C395.19,96.27,395.91,95.66,395.96,95.72z" class="st0"/></g></g></g></g></g></g><g><g><g><g><g><g><path d="M462.06,95.55c0.06-0.05,0.78,0.58,1.9,1.63c1.11,1.06,2.62,2.54,4.26,4.2 c1.64,1.66,3.1,3.19,4.13,4.32c1.04,1.13,1.65,1.85,1.59,1.91c-0.06,0.06-0.77-0.57-1.89-1.62 c-1.11-1.06-2.63-2.54-4.27-4.21c-1.64-1.67-3.1-3.2-4.14-4.33C462.61,96.33,462,95.6,462.06,95.55z" class="st0"/></g></g></g></g></g></g><g><g><g><g><g><g><path d="M461.88,26.54c-0.05-0.06,0.58-0.78,1.63-1.9c1.06-1.11,2.54-2.62,4.2-4.26 c1.66-1.64,3.19-3.1,4.32-4.13c1.13-1.04,1.85-1.65,1.91-1.59c0.06,0.06-0.57,0.77-1.62,1.89 c-1.06,1.11-2.54,2.63-4.21,4.27c-1.67,1.64-3.2,3.1-4.33,4.14C462.65,26,461.93,26.61,461.88,26.54z" class="st0"/></g></g></g></g></g></g><g><g><g><g><g><g><path d="M395.78,26.71c-0.06,0.05-0.78-0.58-1.9-1.63c-1.11-1.06-2.62-2.54-4.26-4.2 c-1.64-1.66-3.1-3.19-4.13-4.32c-1.04-1.13-1.65-1.85-1.59-1.91c0.06-0.06,0.77,0.57,1.89,1.62 c1.11,1.06,2.63,2.54,4.27,4.21c1.64,1.67,3.1,3.2,4.14,4.33C395.23,25.94,395.84,26.66,395.78,26.71z" class="st0"/></g></g></g></g></g></g><g><g><g><g><g><g><path d="M461.88,95.26c0,0-0.01-0.12-0.01-0.33c0-0.24-0.01-0.55-0.01-0.96c-0.01-0.86-0.02-2.11-0.03-3.72 c-0.02-3.26-0.04-8.01-0.07-14.04c-0.03-12.07-0.08-29.26-0.13-49.84l0.25,0.25c-19.24,0.01-41.84,0.02-65.91,0.04h-0.01 l0.29-0.29c-0.02,25.29-0.03,48.95-0.04,68.9l-0.25-0.25c19.75,0.05,36.2,0.1,47.73,0.13c5.76,0.03,10.29,0.05,13.41,0.07 c1.54,0.01,2.72,0.02,3.55,0.03c0.39,0.01,0.69,0.01,0.92,0.01C461.77,95.25,461.87,95.26,461.88,95.26 c0,0-0.09,0.01-0.29,0.01c-0.22,0-0.51,0.01-0.89,0.01c-0.81,0.01-1.98,0.02-3.5,0.03c-3.1,0.02-7.61,0.04-13.35,0.07 c-11.57,0.03-28.07,0.08-47.89,0.13l-0.25,0l0-0.25c-0.01-19.95-0.03-43.61-0.04-68.9l0-0.29h0.29h0.01 c24.07,0.01,46.67,0.03,65.91,0.04l0.26,0l0,0.25c-0.05,20.65-0.1,37.9-0.13,50.01c-0.03,6.01-0.05,10.73-0.07,13.98 c-0.01,1.59-0.02,2.82-0.03,3.67c-0.01,0.4-0.01,0.71-0.01,0.93C461.89,95.16,461.88,95.27,461.88,95.26z" class="st0"/></g></g></g></g></g></g></g><g><g><path d="M430.95,53.4c-2.35-3.53-6.71-5.61-10.93-5.22c-4.22,0.39-8.12,3.25-9.78,7.15 c-1.39,3.29-1.21,7.13,0.17,10.43c1.38,3.29,3.88,6.05,6.83,8.06c7.73,5.26,18.94,5.03,26.12-0.96c2.67-2.22,4.81-5.26,5.3-8.7 c0.57-3.97-1.29-8.2-4.6-10.46c-3.31-2.27-7.92-2.47-11.42-0.51" class="st0"/></g><g><path d="M430.97,53.38c-0.45-1.88-2.45-3.26-4.37-3.01c0.86,1.03,1.72,2.05,2.59,3.08 c-1.4,0.18-2.67,1.17-3.18,2.49c-0.12,0.32-0.16,0.76,0.14,0.92c0.2,0.1,0.44,0.02,0.65-0.07c1.05-0.43,2.09-0.87,3.14-1.3 c0.21,1.75,0.86,3.44,1.87,4.88c0.72-1.54,1.12-3.21,1.19-4.91c1.16,0.51,2.31,1.03,3.47,1.54c-0.27-0.99-0.85-1.9-1.63-2.57 c1.03-0.2,2.02-0.58,2.9-1.13c0.27-0.17,0.56-0.45,0.44-0.74c-0.09-0.22-0.38-0.29-0.62-0.31c-2.28-0.22-4.62,0.26-6.62,1.37" class="st1"/></g><g><path d="M430.75,54.68c0.54-3.5,0.24-7.12-0.86-10.48c0.83-0.18,1.85-0.31,2.38,0.35c0.31,0.38,0.34,0.91,0.35,1.4 c0.04,3.3-0.59,6.61-1.86,9.67" class="st1"/></g><g><g><path d="M413.89,67.26c-0.02,0.02-0.22-0.17-0.54-0.54c-0.32-0.37-0.75-0.96-1.16-1.75 c-0.84-1.55-1.55-4.04-1.1-6.76c0.45-2.72,1.93-4.85,3.22-6.05c0.65-0.61,1.23-1.03,1.66-1.28c0.43-0.25,0.68-0.36,0.69-0.34 c0.04,0.06-0.94,0.57-2.16,1.81c-1.21,1.22-2.6,3.3-3.04,5.92c-0.43,2.62,0.21,5.03,0.97,6.58 C413.18,66.42,413.95,67.22,413.89,67.26z" class="st4"/></g></g><g><g><path d="M417.37,69.9c-0.03,0.1-0.58-0.02-1.14-0.42c-0.55-0.39-0.84-0.88-0.76-0.94 c0.08-0.07,0.48,0.27,0.99,0.63C416.96,69.53,417.41,69.8,417.37,69.9z" class="st4"/></g></g></g></g><g><g><polygon points="132.74 55.77 119.52 36.92 141 46.34 139.81 17.61 156.58 36.44 170.43 13.96 177.13 39.49 198.13 37.05 184.19 59.14 207 73.62 178.41 68.82 177.46 92.14 157.84 76.4 137.23 93.71 139.72 70.97 113.8 68.89" class="st4"/><g><path d="M132.74,55.77c0,0-0.4,0.3-1.21,0.87c-0.83,0.58-2.04,1.43-3.62,2.55c-3.22,2.25-7.95,5.56-14.03,9.81 l-0.06-0.24c7.05,0.55,15.81,1.24,25.92,2.03l0.19,0.01l-0.02,0.19c-0.74,6.81-1.57,14.49-2.46,22.74l-0.35-0.19 c6.31-5.31,13.25-11.15,20.59-17.33l0.15-0.13l0.16,0.13c6.25,5,12.82,10.27,19.63,15.73l-0.42,0.19 c0.3-7.4,0.61-15.25,0.94-23.32l0.01-0.31l0.31,0.05c9.14,1.53,18.75,3.15,28.59,4.8l-0.2,0.51c-6.91-4.39-14.2-9.02-21.6-13.71 l-1.2-0.76l-0.24-0.15l0.15-0.24c4.73-7.49,9.38-14.87,13.94-22.09l0.27,0.43c-7.14,0.83-14.14,1.64-21,2.43l-0.24,0.03 l-0.06-0.23c-2.3-8.78-4.53-17.3-6.68-25.53l0.48,0.07c-4.83,7.82-9.46,15.32-13.87,22.46l-0.17,0.28l-0.22-0.25 c-5.93-6.66-11.52-12.95-16.76-18.84l0.38-0.16c0.43,10.62,0.81,20.22,1.16,28.74l0.01,0.29l-0.26-0.12 c-8.49-3.74-15.59-6.88-21.46-9.47l0.16-0.19c4.28,6.16,7.57,10.89,9.8,14.1c1.09,1.58,1.93,2.79,2.49,3.61 C132.47,55.36,132.74,55.77,132.74,55.77s-0.31-0.41-0.89-1.22c-0.58-0.82-1.44-2.02-2.56-3.6c-2.25-3.17-5.56-7.86-9.88-13.95 l-0.27-0.38l0.43,0.19c5.88,2.57,13,5.67,21.51,9.38l-0.25,0.17c-0.37-8.51-0.78-18.11-1.24-28.73L139.56,17l0.41,0.46 c5.25,5.88,10.85,12.16,16.79,18.81l-0.39,0.03c4.4-7.15,9.02-14.65,13.84-22.48l0.32-0.52l0.16,0.59 c2.16,8.23,4.4,16.75,6.71,25.52l-0.3-0.2c6.86-0.8,13.86-1.61,21-2.45l0.58-0.07l-0.31,0.5c-4.55,7.22-9.21,14.6-13.93,22.09 l-0.09-0.39l1.2,0.76c7.4,4.7,14.69,9.33,21.6,13.72l1.17,0.74l-1.37-0.23c-9.84-1.66-19.45-3.28-28.59-4.81l0.32-0.26 c-0.33,8.06-0.66,15.92-0.96,23.32l-0.02,0.52l-0.4-0.32c-6.81-5.47-13.37-10.74-19.61-15.75l0.31,0 c-7.35,6.16-14.31,11.99-20.63,17.29l-0.41,0.35l0.06-0.54c0.91-8.25,1.77-15.92,2.52-22.73l0.17,0.2 c-10.11-0.83-18.86-1.55-25.91-2.13l-0.37-0.03l0.3-0.21c6.09-4.18,10.82-7.43,14.05-9.65c1.61-1.1,2.84-1.94,3.68-2.52 C132.29,56.05,132.74,55.77,132.74,55.77z" class="st5"/></g></g><g><g><g><g><g><g><g><g><path d="M190.94,82.21c0.01,0.04-0.47,0.07-1.25,0.39c-0.76,0.31-1.83,1-2.63,2.26 c-0.39,0.63-0.71,1.39-0.81,2.25c-0.09,0.85,0.03,1.8,0.47,2.66c0.83,1.72,2.83,3.22,5.08,3.11 c2.25-0.15,4.06-1.87,4.68-3.68c0.34-0.91,0.35-1.86,0.16-2.7c-0.2-0.84-0.61-1.56-1.07-2.14 c-0.94-1.16-2.08-1.71-2.88-1.93c-0.81-0.22-1.29-0.19-1.28-0.24c0-0.01,0.12-0.02,0.34-0.03c0.11-0.01,0.25,0,0.42,0.02 c0.17,0.01,0.35,0.04,0.56,0.09c0.83,0.18,2.04,0.71,3.06,1.9c0.5,0.59,0.95,1.34,1.18,2.24 c0.22,0.89,0.22,1.92-0.13,2.91c-0.33,0.98-0.96,1.92-1.82,2.64c-0.85,0.74-1.98,1.24-3.18,1.32 c-1.21,0.06-2.38-0.31-3.32-0.94c-0.94-0.62-1.68-1.47-2.12-2.41c-0.46-0.93-0.59-1.96-0.47-2.87 c0.12-0.92,0.48-1.72,0.9-2.36c0.87-1.3,2.01-1.97,2.81-2.25c0.2-0.08,0.39-0.13,0.55-0.16c0.16-0.04,0.3-0.06,0.41-0.07 C190.82,82.2,190.93,82.2,190.94,82.21z" class="st5"/></g></g></g></g></g><g><g><g><g><g><path d="M204.72,95.92c0.01,0.04-0.29,0.07-0.77,0.27c-0.47,0.2-1.13,0.64-1.62,1.42 c-0.49,0.76-0.75,1.95-0.19,3.03c0.51,1.06,1.75,1.98,3.13,1.91c1.38-0.09,2.5-1.15,2.88-2.27 c0.43-1.14,0.03-2.29-0.55-2.99c-0.58-0.72-1.28-1.08-1.78-1.22c-0.5-0.15-0.8-0.14-0.8-0.18c0-0.02,0.3-0.08,0.84,0.03 c0.53,0.1,1.31,0.44,1.96,1.19c0.32,0.38,0.61,0.85,0.76,1.43c0.15,0.57,0.15,1.24-0.08,1.87 c-0.41,1.25-1.63,2.44-3.21,2.55c-1.59,0.07-2.93-0.96-3.49-2.15c-0.3-0.6-0.37-1.26-0.3-1.84 c0.08-0.59,0.31-1.1,0.59-1.51c0.56-0.83,1.29-1.25,1.81-1.41C204.42,95.88,204.72,95.91,204.72,95.92z" class="st5"/></g></g></g></g></g></g></g></g><g><g><path d="M153.45,43.64l0.11,12c0.01,0.98,0.75,1.8,1.72,1.91l0,0c1.03,0.12,1.97-0.59,2.14-1.61l1.98-11.95 c0.15-0.9-0.53-1.74-1.44-1.77l-2.92-0.12C154.16,42.06,153.44,42.76,153.45,43.64z" class="st5"/><path d="M158.09,64.45c-0.59,1.5-2.29,2.24-3.79,1.65c-1.5-0.59-2.24-2.29-1.65-3.79c0.59-1.5,2.29-2.24,3.79-1.65 C157.94,61.25,158.68,62.95,158.09,64.45z" class="st5"/></g><g><path d="M162.56,44.13l0.11,12c0.01,0.98,0.75,1.8,1.72,1.91l0,0c1.03,0.12,1.97-0.59,2.14-1.61l1.98-11.95 c0.15-0.9-0.53-1.74-1.44-1.77l-2.92-0.12C163.28,42.56,162.56,43.26,162.56,44.13z" class="st5"/><path d="M167.2,64.95c-0.59,1.5-2.29,2.24-3.79,1.65c-1.5-0.59-2.24-2.29-1.65-3.79c0.59-1.5,2.29-2.24,3.79-1.65 C167.05,61.75,167.79,63.44,167.2,64.95z" class="st5"/></g></g></g><g><g><polygon points="344.03 64.88 353.96 50.73 337.83 57.8 338.73 36.23 326.13 50.36 315.73 33.49 310.7 52.66 294.94 50.82 305.4 67.41 288.28 78.28 309.74 74.67 310.46 92.18 325.19 80.36 340.66 93.36 338.79 76.29 358.25 74.73" class="st4"/><g><path d="M344.03,64.88c0,0,0.34,0.22,0.97,0.64c0.64,0.43,1.57,1.06,2.77,1.88c2.43,1.66,5.98,4.1,10.55,7.22 l0.3,0.21l-0.37,0.03c-5.3,0.44-11.87,0.99-19.46,1.62l0.17-0.2c0.57,5.11,1.21,10.87,1.9,17.07l0.06,0.54l-0.41-0.35 c-4.75-3.98-9.97-8.35-15.49-12.98l0.31,0c-4.68,3.76-9.61,7.72-14.72,11.83l-0.4,0.32l-0.02-0.52 c-0.23-5.55-0.47-11.45-0.72-17.51l0.32,0.26c-6.86,1.16-14.08,2.37-21.46,3.62l-1.37,0.23l1.17-0.74 c5.19-3.3,10.66-6.77,16.22-10.3l0.9-0.57l-0.09,0.39c-3.55-5.63-7.04-11.16-10.46-16.59l-0.31-0.5l0.58,0.07 c5.36,0.62,10.62,1.24,15.76,1.84l-0.3,0.2c1.73-6.59,3.41-12.99,5.04-19.16l0.16-0.59l0.32,0.52 c3.62,5.88,7.08,11.51,10.39,16.88l-0.39-0.03c4.46-4.99,8.67-9.7,12.61-14.12l0.41-0.46l-0.03,0.62 c-0.35,7.97-0.66,15.18-0.94,21.57l-0.25-0.17c6.38-2.78,11.73-5.1,16.15-7.03l0.43-0.19l-0.27,0.38 c-3.24,4.56-5.73,8.07-7.42,10.46c-0.84,1.18-1.49,2.08-1.93,2.7C344.27,64.56,344.03,64.88,344.03,64.88s0.19-0.3,0.61-0.91 c0.43-0.62,1.05-1.53,1.86-2.71c1.68-2.42,4.14-5.97,7.35-10.6l0.16,0.19c-4.41,1.95-9.74,4.31-16.11,7.12l-0.26,0.12l0.01-0.29 c0.25-6.39,0.54-13.6,0.86-21.58l0.38,0.16c-3.93,4.43-8.13,9.15-12.58,14.15l-0.22,0.25l-0.17-0.28 c-3.31-5.36-6.79-10.99-10.42-16.86l0.48-0.07c-1.62,6.18-3.29,12.58-5.01,19.17l-0.06,0.23l-0.24-0.03 c-5.15-0.6-10.41-1.21-15.76-1.83l0.27-0.43c3.42,5.42,6.91,10.96,10.46,16.58l0.15,0.24l-0.24,0.15l-0.9,0.57 c-5.56,3.53-11.03,7-16.22,10.3l-0.2-0.51c7.39-1.24,14.61-2.45,21.47-3.6l0.31-0.05l0.01,0.31c0.24,6.06,0.48,11.96,0.7,17.51 l-0.42-0.19c5.12-4.1,10.05-8.05,14.74-11.8l0.16-0.13l0.15,0.13c5.51,4.64,10.72,9.03,15.46,13.02l-0.35,0.19 c-0.67-6.2-1.29-11.96-1.84-17.07l-0.02-0.19l0.19-0.01c7.59-0.59,14.17-1.1,19.46-1.51l-0.06,0.24 c-4.56-3.2-8.11-5.69-10.53-7.39c-1.18-0.84-2.09-1.48-2.71-1.92C344.33,65.1,344.03,64.88,344.03,64.88z" class="st5"/></g></g><g><g><g><g><g><g><g><g><path d="M300.34,84.73c-0.01,0.03,0.35,0.05,0.94,0.29c0.57,0.23,1.38,0.75,1.97,1.69 c0.29,0.47,0.53,1.04,0.61,1.69c0.07,0.64-0.03,1.35-0.36,2c-0.62,1.29-2.12,2.42-3.81,2.33 c-1.69-0.12-3.05-1.41-3.51-2.77c-0.25-0.69-0.26-1.4-0.12-2.03c0.15-0.63,0.46-1.17,0.8-1.6 c0.71-0.87,1.56-1.29,2.16-1.45c0.61-0.17,0.97-0.15,0.96-0.18c0-0.01-0.09-0.02-0.26-0.02c-0.09-0.01-0.19,0-0.31,0.02 c-0.12,0.01-0.27,0.03-0.42,0.07c-0.62,0.13-1.53,0.53-2.3,1.43c-0.37,0.44-0.71,1.01-0.88,1.68 c-0.17,0.67-0.16,1.44,0.1,2.18c0.25,0.74,0.72,1.44,1.37,1.99c0.64,0.55,1.48,0.93,2.39,0.99 c0.91,0.04,1.79-0.23,2.49-0.7c0.71-0.46,1.26-1.11,1.59-1.81c0.35-0.7,0.44-1.47,0.35-2.15 c-0.09-0.69-0.36-1.29-0.68-1.77c-0.65-0.98-1.51-1.48-2.11-1.69c-0.15-0.06-0.29-0.09-0.41-0.12 c-0.12-0.03-0.22-0.05-0.31-0.05C300.43,84.73,300.34,84.72,300.34,84.73z" class="st5"/></g></g></g></g></g><g><g><g><g><g><path d="M289.98,95.03c0,0.03,0.22,0.05,0.58,0.2c0.36,0.15,0.85,0.48,1.22,1.07 c0.37,0.57,0.57,1.46,0.15,2.28c-0.39,0.8-1.31,1.49-2.35,1.43c-1.04-0.07-1.88-0.86-2.16-1.7 c-0.32-0.86-0.02-1.72,0.41-2.24c0.43-0.54,0.96-0.81,1.34-0.92c0.38-0.11,0.6-0.11,0.6-0.13c0-0.01-0.23-0.06-0.63,0.02 c-0.4,0.08-0.98,0.33-1.47,0.89c-0.24,0.28-0.46,0.64-0.57,1.07c-0.11,0.43-0.11,0.93,0.06,1.4 c0.31,0.94,1.22,1.83,2.41,1.91c1.19,0.06,2.2-0.72,2.62-1.62c0.22-0.45,0.28-0.95,0.22-1.38 c-0.06-0.44-0.23-0.82-0.44-1.13c-0.42-0.62-0.97-0.94-1.36-1.06C290.22,94.99,289.98,95.01,289.98,95.03z" class="st5"/></g></g></g></g></g></g></g></g><g><g><path d="M328.48,55.77l-0.08,9.01c-0.01,0.74-0.56,1.35-1.29,1.44l0,0c-0.77,0.09-1.48-0.44-1.61-1.21l-1.49-8.97 c-0.11-0.68,0.4-1.3,1.08-1.33l2.19-0.09C327.95,54.59,328.49,55.11,328.48,55.77z" class="st5"/><path d="M325,71.4c0.44,1.13,1.72,1.68,2.85,1.24c1.13-0.44,1.68-1.72,1.24-2.85s-1.72-1.68-2.85-1.24 C325.11,68.99,324.56,70.27,325,71.4z" class="st5"/></g><g><path d="M321.64,56.14l-0.08,9.01c-0.01,0.74-0.56,1.35-1.29,1.44l0,0c-0.77,0.09-1.48-0.44-1.61-1.21l-1.49-8.97 c-0.11-0.68,0.4-1.3,1.08-1.33l2.19-0.09C321.1,54.96,321.64,55.48,321.64,56.14z" class="st5"/><path d="M318.16,71.77c0.44,1.13,1.72,1.68,2.85,1.24c1.13-0.44,1.68-1.72,1.24-2.85 c-0.44-1.13-1.72-1.68-2.85-1.24C318.27,69.36,317.71,70.64,318.16,71.77z" class="st5"/></g></g></g><g><path d="M477.47,476.13c0,0.16-103.1,0.28-230.25,0.28c-127.2,0-230.28-0.13-230.28-0.28 c0-0.16,103.08-0.28,230.28-0.28C374.37,475.84,477.47,475.97,477.47,476.13z" class="st5"/></g><g><rect width="181.42" height="115.27" x="154.46" y="360.6" class="st6"/><path d="M333.51,397.77H148.28c-10.03,0-18.16-8.13-18.16-18.16v-4.14c0-10.03,8.13-18.16,18.16-18.16h185.23 c10.03,0,18.16,8.13,18.16,18.16v4.14C351.67,389.64,343.54,397.77,333.51,397.77z" class="st6"/><g><path d="M336.13,397.22c0,0.16-42.38,0.28-94.65,0.28c-52.29,0-94.66-0.13-94.66-0.28s42.37-0.28,94.66-0.28 C293.75,396.93,336.13,397.06,336.13,397.22z" class="st5"/></g><g><path d="M178.69,476.79c-0.16,0-0.28-17.57-0.28-39.24c0-21.68,0.13-39.25,0.28-39.25s0.28,17.57,0.28,39.25 C178.98,459.22,178.85,476.79,178.69,476.79z" class="st5"/></g><g><path d="M293.37,381.44c-0.09,0.01-0.27-1.15-0.71-2.98c-0.44-1.83-1.18-4.33-2.34-6.96 c-1.17-2.63-2.52-4.86-3.59-6.41c-1.06-1.56-1.8-2.47-1.73-2.53c0.05-0.04,0.9,0.78,2.06,2.29c1.16,1.51,2.59,3.75,3.78,6.42 c1.18,2.67,1.88,5.23,2.22,7.11C293.39,380.25,293.43,381.44,293.37,381.44z" class="st5"/></g><g><path d="M303.11,375.39c-0.1,0.03-0.5-1.16-1.46-2.91c-0.96-1.75-2.59-4.02-4.88-6.02c-2.31-2-4.78-3.29-6.65-3.99 c-1.87-0.71-3.1-0.94-3.08-1.04c0.01-0.04,0.32-0.01,0.88,0.08c0.56,0.08,1.37,0.27,2.34,0.59c1.94,0.62,4.52,1.89,6.89,3.94 c2.36,2.06,3.98,4.43,4.87,6.27c0.45,0.92,0.75,1.68,0.91,2.23C303.07,375.08,303.15,375.38,303.11,375.39z" class="st5"/></g></g><g><g><polygon points="217.95 151.39 190.89 155.79 188.91 210.37 188.91 318.17 310.6 318.17 310.6 191.78 294.8 155.79" class="st7"/><path d="M190.89,155.79c0,0-21.91,10.56-25.62,34.18c-3.71,23.62-13.53,49.88-15.39,55.19 c-1.86,5.31-7.96,27.33,1.33,36.35c9.29,9.02,13.27,8.23,19.1,7.43c5.84-0.8,16.37-9.68,20.95-14.32 c5.51-5.58,2.57-15.19,2.57-15.19L190.89,155.79z" class="st7"/><path d="M294.8,155.79c0,0,15.8,3.51,23.21,14.86c6.43,9.83,15.47,40.38,15.47,40.38s14.3,39.17,12.54,50.39 c-1.76,11.22-17.21,25.89-26.61,19.46c-8.42-5.76-15.15-10.91-18.83-15.29c-1.19-1.42-2.12-5.14-1.96-6.98l3.83-55.28 L294.8,155.79z" class="st7"/><g><path d="M157.45,252.6c-0.04,0.05-0.92-0.96-1.33-2.98c-0.42-1.97-0.49-4.93,0.79-7.82c0.66-1.41,1.45-2.7,2.5-3.61 c1.04-0.93,2.33-1.3,3.35-1.31c1.04-0.04,1.85,0.18,2.39,0.32c0.54,0.18,0.83,0.3,0.82,0.33c-0.02,0.13-1.23-0.38-3.18-0.25 c-0.96,0.07-2.1,0.44-3.03,1.31c-0.94,0.85-1.7,2.1-2.33,3.45c-1.22,2.74-1.22,5.59-0.91,7.51 C156.81,251.51,157.52,252.55,157.45,252.6z" class="st5"/></g><g><path d="M193.07,208.57c-0.16-0.01-0.13-4.51,0.05-10.07c0.18-5.56,0.46-10.06,0.61-10.05 c0.16,0.01,0.13,4.51-0.05,10.07C193.5,204.08,193.23,208.58,193.07,208.57z" class="st5"/></g><g><path d="M159.05,238.71c-0.04,0.16-1.09-0.01-2.34,0.25c-1.25,0.24-2.16,0.8-2.26,0.67 c-0.1-0.1,0.75-0.95,2.15-1.23C157.99,238.11,159.1,238.57,159.05,238.71z" class="st5"/></g><g><path d="M299.26,198.52c-0.08,0.01-0.24-1.17-0.51-3.06c-0.27-1.89-0.67-4.5-1.23-7.36 c-0.56-2.86-1.17-5.43-1.64-7.29c-0.46-1.86-0.76-3-0.68-3.03c0.07-0.02,0.5,1.08,1.07,2.92c0.57,1.84,1.24,4.41,1.81,7.28 c0.56,2.88,0.9,5.51,1.07,7.43C299.31,197.33,299.33,198.52,299.26,198.52z" class="st5"/></g><g><path d="M277.37,267.69c0.01,0.01-0.13,0.19-0.43,0.52c-0.34,0.37-0.78,0.84-1.32,1.43 c-0.57,0.62-1.29,1.37-2.16,2.19c-0.87,0.83-1.83,1.8-2.98,2.78c-1.13,1-2.37,2.09-3.77,3.19c-1.36,1.14-2.91,2.24-4.52,3.43 c-3.27,2.3-6.98,4.65-11.05,6.83c-4.08,2.15-8.12,3.91-11.85,5.34c-1.88,0.67-3.66,1.33-5.37,1.83 c-1.69,0.55-3.29,0.97-4.75,1.34c-1.45,0.41-2.8,0.66-3.97,0.92c-1.17,0.27-2.19,0.44-3.02,0.57c-0.79,0.12-1.42,0.22-1.92,0.3 c-0.44,0.06-0.67,0.08-0.68,0.07c0-0.02,0.22-0.08,0.66-0.18c0.49-0.1,1.12-0.24,1.9-0.4c0.83-0.16,1.84-0.37,2.99-0.66 c1.16-0.29,2.49-0.56,3.94-0.99c1.45-0.4,3.04-0.84,4.71-1.4c1.69-0.51,3.46-1.19,5.33-1.87c3.7-1.44,7.71-3.21,11.77-5.35 c4.04-2.17,7.75-4.5,11.02-6.76c1.61-1.17,3.16-2.25,4.53-3.37c1.41-1.07,2.66-2.14,3.8-3.12c1.16-0.95,2.14-1.9,3.03-2.71 c0.89-0.8,1.63-1.52,2.22-2.11c0.57-0.55,1.03-1,1.39-1.35C277.18,267.83,277.35,267.68,277.37,267.69z" class="st5"/></g><g class="st8"><path d="M328.12,250.17c0,1.34,0.28,1.81,1.07,2.09c0.54,0.19,1.53-0.28,1.95-0.66c1.76-1.61,2.48-4.06,2.75-6.43 c0.55-4.76-0.43-9.69-2.76-13.88c0.6,2.74,0.89,5.07,0.05,8.33L328.12,250.17z"/></g><g class="st8"><path d="M162.69,260.17c-1.19-3.26-4.25-5.48-5.84-8.57c-1.88-3.65-0.42-9.74,2.2-12.89c-3.72,2.36-4.37,7.76-4.49,11.81 c-0.12,4.05,1.09,8.21,3.72,11.28c0.55,0.64,1.18,1.24,1.97,1.52c0.79,0.28,1.78,0.14,2.31-0.51 C163.15,262.1,163.01,261.04,162.69,260.17z"/></g><g><path d="M180.57,198.35c-0.13,0.09-2.08-2.43-4.36-5.62c-2.28-3.2-4.03-5.86-3.9-5.95 c0.13-0.09,2.08,2.43,4.36,5.62C178.96,195.6,180.7,198.26,180.57,198.35z" class="st4"/></g><g><path d="M172.68,221.45c0.08,0.13-2.07,1.62-4.8,3.33c-2.73,1.71-5.02,2.98-5.1,2.85c-0.08-0.13,2.07-1.62,4.8-3.33 C170.31,222.59,172.6,221.32,172.68,221.45z" class="st4"/></g><g><path d="M195.11,229.57c-0.11,0.11-2.26-1.79-4.8-4.25c-2.54-2.46-4.52-4.54-4.41-4.65 c0.11-0.11,2.26,1.79,4.8,4.25C193.25,227.38,195.22,229.46,195.11,229.57z" class="st4"/></g><g><path d="M161.3,256.18c-0.15-0.04,0.11-1.67,0.58-3.65c0.47-1.98,0.97-3.56,1.13-3.52 c0.15,0.04-0.11,1.67-0.58,3.65C161.96,254.64,161.45,256.21,161.3,256.18z" class="st4"/></g><g><path d="M158.59,275.66c-0.13,0.11-2.34-2.5-5.36-5.41c-3.01-2.92-5.68-5.05-5.58-5.18 c0.05-0.06,0.77,0.4,1.88,1.23c1.1,0.84,2.58,2.07,4.1,3.54c1.52,1.47,2.8,2.9,3.67,3.98 C158.17,274.9,158.65,275.62,158.59,275.66z" class="st4"/></g><g><path d="M172.19,271.18c0.14,0.08-1.37,2.97-3.35,6.46c-1.99,3.49-3.71,6.25-3.85,6.18 c-0.14-0.08,1.37-2.97,3.35-6.46C170.33,273.86,172.05,271.1,172.19,271.18z" class="st4"/></g><g><path d="M185.25,271.56c-0.13,0.11-1.77-1.7-4.03-3.66c-2.25-1.98-4.26-3.37-4.17-3.51 c0.07-0.13,2.25,1.07,4.54,3.09C183.89,269.48,185.36,271.47,185.25,271.56z" class="st4"/></g><g><path d="M191.99,170.68c0.13,0.09-1.52,2.55-3.67,5.49c-2.15,2.94-4,5.24-4.13,5.15c-0.13-0.09,1.52-2.55,3.67-5.49 C190.01,172.9,191.86,170.59,191.99,170.68z" class="st4"/></g><g><path d="M208.49,170.06c-0.12,0.1-2.28-2.35-4.83-5.46c-2.55-3.11-4.52-5.72-4.39-5.82 c0.12-0.1,2.28,2.34,4.83,5.46C206.65,167.36,208.61,169.96,208.49,170.06z" class="st4"/></g><g><path d="M210.66,205.4c-0.12,0.08-1.93-2.41-3.69-5.76c-1.77-3.35-2.8-6.25-2.66-6.31 c0.15-0.06,1.41,2.72,3.16,6.04C209.22,202.7,210.8,205.31,210.66,205.4z" class="st4"/></g><g><path d="M232.07,193.97c-0.05,0.15-3.3-0.9-7.26-2.34c-3.96-1.44-7.12-2.72-7.07-2.87c0.05-0.15,3.3,0.9,7.26,2.34 C228.96,192.54,232.12,193.83,232.07,193.97z" class="st4"/></g><g><path d="M235.84,166.34c0.08,0.14-1.76,1.31-3.84,2.98c-2.09,1.66-3.64,3.19-3.76,3.08 c-0.11-0.1,1.28-1.83,3.41-3.52C233.77,167.17,235.77,166.21,235.84,166.34z" class="st4"/></g><g><path d="M223.77,231.59c-0.15,0.02-0.83-3.63-1.5-8.16c-0.68-4.53-1.1-8.22-0.94-8.24c0.15-0.02,0.83,3.63,1.5,8.16 C223.5,227.88,223.92,231.57,223.77,231.59z" class="st4"/></g><g><path d="M220.13,248.63c-0.08,0.13-3.21-1.59-6.98-3.85c-3.78-2.26-6.78-4.2-6.69-4.34 c0.08-0.13,3.21,1.59,6.99,3.85C217.21,246.55,220.21,248.5,220.13,248.63z" class="st4"/></g><g><path d="M205,271.24c-0.15,0.05-1.12-2.51-2.18-5.71c-1.06-3.2-1.79-5.84-1.64-5.89c0.15-0.05,1.12,2.51,2.18,5.71 C204.41,268.56,205.15,271.19,205,271.24z" class="st4"/></g><g><path d="M212.93,293.78c-0.07,0.14-3.03-1.31-6.59-3.23c-3.57-1.92-6.4-3.59-6.32-3.73 c0.07-0.14,3.03,1.31,6.59,3.23C210.17,291.97,213,293.64,212.93,293.78z" class="st4"/></g><g><path d="M235.66,266.03c0.15,0.06-1.34,4.23-3.33,9.33c-1.98,5.1-3.71,9.18-3.86,9.12 c-0.15-0.06,1.34-4.23,3.33-9.33C233.78,270.06,235.51,265.97,235.66,266.03z" class="st4"/></g><g><path d="M252.56,253.11c-0.12,0.13-2.91-2.7-6.98-5.34c-4.06-2.67-7.77-4.07-7.7-4.24c0.02-0.07,0.98,0.2,2.47,0.82 c1.48,0.61,3.48,1.61,5.54,2.95c2.06,1.34,3.77,2.77,4.93,3.88C251.98,252.29,252.61,253.06,252.56,253.11z" class="st4"/></g><g><path d="M267.97,226.48c0.11,0.11-1.86,2.41-4.42,5.14c-2.55,2.73-4.72,4.86-4.83,4.75 c-0.11-0.11,1.86-2.41,4.42-5.14C265.7,228.5,267.86,226.37,267.97,226.48z" class="st4"/></g><g><path d="M252.57,223.04c-0.17,0.03-0.68-2.84-2.01-6.13c-1.31-3.31-2.92-5.73-2.77-5.83 c0.11-0.09,1.96,2.24,3.3,5.62C252.44,220.07,252.71,223.03,252.57,223.04z" class="st4"/></g><g><path d="M259.44,185.48c0.13,0.11-2.04,2.76-4.45,6.21c-2.42,3.45-4.15,6.39-4.3,6.31 c-0.07-0.04,0.29-0.82,0.95-2.04c0.67-1.22,1.67-2.86,2.88-4.6c1.21-1.74,2.41-3.24,3.32-4.29 C258.76,186.03,259.38,185.43,259.44,185.48z" class="st4"/></g><g><path d="M254.72,175.49c-0.14,0.07-1.47-2.4-2.97-5.52c-1.5-3.12-2.61-5.7-2.46-5.77c0.14-0.07,1.47,2.4,2.97,5.52 C253.75,172.84,254.86,175.42,254.72,175.49z" class="st4"/></g><g><path d="M287.19,241.96c0.1,0.12-2.13,2.18-4.99,4.6c-2.86,2.42-5.26,4.29-5.36,4.17c-0.1-0.12,2.13-2.18,4.99-4.6 C284.69,243.71,287.09,241.84,287.19,241.96z" class="st4"/></g><g><path d="M281.27,213.47c-0.05,0.15-2.92-0.65-6.41-1.78c-3.49-1.13-6.28-2.17-6.23-2.32 c0.05-0.15,2.92,0.65,6.41,1.78C278.53,212.28,281.32,213.32,281.27,213.47z" class="st4"/></g><g><path d="M285.34,196.36c-0.14-0.08,1.36-3.04,3.34-6.63c1.98-3.59,3.7-6.43,3.83-6.36s-1.36,3.04-3.34,6.63 C287.19,193.59,285.47,196.44,285.34,196.36z" class="st4"/></g><g><path d="M299.77,166.13c-0.03,0.15-4.2-0.58-9.31-1.63c-5.11-1.05-9.23-2.03-9.2-2.18c0.03-0.15,4.2,0.58,9.31,1.63 C295.68,165,299.8,165.97,299.77,166.13z" class="st4"/></g><g><path d="M306.55,180.66c-0.14-0.07,1.08-2.93,2.74-6.4c1.65-3.47,3.11-6.23,3.25-6.16c0.14,0.07-1.08,2.93-2.74,6.4 C308.15,177.97,306.69,180.73,306.55,180.66z" class="st4"/></g><g><path d="M321.49,206.06c-0.11,0.11-2.95-2.4-6.34-5.61c-3.39-3.21-6.06-5.91-5.95-6.02s2.94,2.4,6.34,5.61 C318.93,203.25,321.6,205.95,321.49,206.06z" class="st4"/></g><g><path d="M318.84,228.49c-0.12-0.1,1.62-2.4,3.88-5.14c2.27-2.74,4.2-4.87,4.32-4.77c0.12,0.1-1.62,2.4-3.88,5.14 C320.9,226.45,318.96,228.59,318.84,228.49z" class="st4"/></g><g><path d="M298.09,276.04c-0.14-0.07,1.42-3.72,3.5-8.15c2.07-4.44,3.87-7.98,4.01-7.91c0.14,0.07-1.42,3.72-3.5,8.15 C300.03,272.56,298.23,276.1,298.09,276.04z" class="st4"/></g><g><path d="M289.74,290.4c-0.13,0.09-2.53-3.13-5.36-7.19c-2.83-4.06-5.02-7.42-4.89-7.51 c0.13-0.09,2.53,3.13,5.36,7.19C287.68,286.95,289.87,290.31,289.74,290.4z" class="st4"/></g><g><path d="M268.59,300.25c0.14,0.07-1.12,2.81-2.82,6.11c-1.7,3.31-3.18,5.93-3.32,5.85 c-0.14-0.07,1.12-2.81,2.82-6.11C266.96,302.8,268.45,300.18,268.59,300.25z" class="st4"/></g><g><path d="M249.78,315c-0.13,0.09-2.22-2.51-4.67-5.81c-2.45-3.3-4.34-6.06-4.22-6.15c0.13-0.09,2.22,2.51,4.67,5.81 C248.02,312.16,249.91,314.91,249.78,315z" class="st4"/></g><g><path d="M210.16,312.94c-0.13,0.09-1.84-2.05-3.83-4.78c-1.99-2.73-3.5-5.02-3.37-5.11 c0.13-0.09,1.84,2.05,3.83,4.78C208.78,310.55,210.29,312.84,210.16,312.94z" class="st4"/></g><g><path d="M260.81,280.1c-0.17,0-0.29-2.12-0.88-4.65c-0.57-2.54-1.39-4.5-1.23-4.57c0.13-0.07,1.19,1.84,1.78,4.44 C261.08,277.93,260.96,280.11,260.81,280.1z" class="st4"/></g><g><path d="M258.72,295.14c-0.16,0-0.28-1.07-0.28-2.39c0-1.32,0.13-2.39,0.28-2.39c0.16,0,0.28,1.07,0.28,2.39 C259,294.07,258.88,295.14,258.72,295.14z" class="st4"/></g><g><path d="M332.88,267.46c-0.08,0.14-2.35-1.09-5.26-2.3c-2.91-1.23-5.37-1.98-5.33-2.14 c0.03-0.14,2.59,0.37,5.55,1.62C330.79,265.87,332.95,267.34,332.88,267.46z" class="st4"/></g><g><path d="M343.47,245.25c0,0.16-1.07,0.28-2.39,0.28c-1.32,0-2.39-0.13-2.39-0.28s1.07-0.28,2.39-0.28 C342.4,244.97,343.47,245.09,343.47,245.25z" class="st4"/></g><g class="st8"><path d="M267.73,163.15c-3.98,6.48-4.8,14.5-3.78,22.04c1.02,7.53,3.74,14.71,6.45,21.82c6.23,16.38,12.47,32.77,18.7,49.15 c1.81,4.77,3.69,9.64,7.01,13.51s9.46,5.98,14.48,5.07c-4.46-4.29-10.93-10.3-11.15-10.99c-1.26-3.98-0.27-10.84-0.83-14.98 c-0.85-6.33-4.92-12.83-7.67-18.59c-6.55-13.75-13.1-27.51-19.65-41.26c-2.28-4.78-4.59-10.29-2.59-15.19 c0.86-2.1,2.47-3.92,2.82-6.16c0.35-2.24-1.67-5.02-3.76-4.13"/></g><g class="st8"><path d="M188.91,285.96c7.92-2.73,11.03-12.01,14.35-19.7c8.91-20.63,17.82-41.25,26.72-61.88c1.85-4.29,3.73-8.68,4.05-13.35 c0.31-4.66-1.23-9.73-5.05-12.43c-12.1,15.29-24.17,30.83-32.73,48.35c-6.02,12.33-4.86,23.03-1.36,35.09 c2.06,7.09-5.98,13.95-5.98,14.94C188.89,281.38,188.93,283.68,188.91,285.96"/></g></g><g><g><g><g><g><g><g><g><g><g><path d="M217.56,126.97c-2.22-7.22-4.42-14.5-5.37-21.99c-0.95-7.5-0.6-15.29,2.14-22.33 c0.42-1.07,3.93-8.22,5.07-8.09c0.81,0.09-1.39,6.78-0.98,7.49c3.83,6.81,4.77,14.95,4.02,22.73 C221.69,112.56,219.96,119.54,217.56,126.97" class="st5"/></g></g></g></g><g><g><path d="M259.3,169.5c0.14-5.34,0.26-9.55,0.3-9.55c0,0,18.34-1.57,19.82-19.69 c0.71-8.76,0.72-26.91,0.53-43.33c-0.2-17.65-13.93-32.19-31.55-33.4l-1.75-0.12c-18.95-0.2-29.71,15.78-29.39,34.73 l-0.98,66.31l29.63,25.31L259.3,169.5z" class="st9"/></g></g><g><g><g><g><g><g><path d="M259.74,159.96c0,0-11.48-0.12-23.14-8.62c0,0,4.85,13.59,23.06,13.21L259.74,159.96z" class="st10"/></g></g></g></g></g></g><g><g><g><g><g><g><g><g><g><g><g><g><path d="M271.94,110.48c-0.05,1.37-1.25,2.46-2.68,2.44c-1.43-0.02-2.56-1.15-2.51-2.52 c0.05-1.37,1.25-2.46,2.68-2.44C270.86,107.98,271.98,109.11,271.94,110.48z" class="st5"/></g></g></g></g></g></g></g></g></g></g></g></g><g><g><g><g><g><g><g><g><g><g><g><g><g><path d="M275.55,104.19c-0.34,0.32-2.21-1.27-5-1.46c-2.78-0.22-4.93,1.07-5.21,0.71 c-0.14-0.16,0.23-0.75,1.17-1.34c0.92-0.59,2.46-1.11,4.2-0.98c1.74,0.13,3.15,0.87,3.95,1.58 C275.47,103.42,275.72,104.05,275.55,104.19z" class="st5"/></g></g></g></g></g></g></g></g></g></g></g></g></g><g><g><g><g><g><g><g><g><g><g><g><g><path d="M245.91,109.93c-0.05,1.37-1.25,2.46-2.68,2.44c-1.43-0.02-2.56-1.15-2.51-2.52 c0.05-1.37,1.25-2.46,2.68-2.44C244.84,107.43,245.96,108.56,245.91,109.93z" class="st5"/></g></g></g></g></g></g></g></g></g></g></g></g><g><g><g><g><g><g><g><g><g><g><g><g><g><path d="M248.16,103.43c-0.35,0.32-2.21-1.27-5-1.46c-2.78-0.22-4.93,1.07-5.21,0.71 c-0.14-0.16,0.23-0.75,1.17-1.34c0.92-0.59,2.46-1.11,4.2-0.98c1.74,0.13,3.15,0.87,3.95,1.58 C248.08,102.66,248.33,103.29,248.16,103.43z" class="st5"/></g></g></g></g></g></g></g></g></g></g></g></g></g><g><g><g><g><g><g><g><g><g><g><g><g><path d="M256.68,125.55c0-0.16,1.75-0.34,4.58-0.5c0.72-0.02,1.4-0.12,1.55-0.6 c0.2-0.5-0.04-1.29-0.33-2.14c-0.55-1.77-1.13-3.62-1.73-5.57c-2.39-7.92-4.07-14.41-3.75-14.51 c0.32-0.09,2.52,6.25,4.91,14.17c0.57,1.95,1.12,3.81,1.64,5.59c0.21,0.83,0.61,1.78,0.18,2.82 c-0.23,0.52-0.78,0.87-1.24,0.96c-0.47,0.11-0.87,0.09-1.22,0.08C258.44,125.81,256.68,125.71,256.68,125.55z" class="st5"/></g></g></g></g></g></g></g></g></g></g></g></g><g><g><g><g><g><g><g><g><g><g><g><g><path d="M254.57,136.68c-0.45,0.07-0.73-2.95-3.51-4.86c-2.78-1.91-5.97-1.28-6.03-1.7 c-0.06-0.19,0.66-0.65,2.02-0.81c1.33-0.17,3.31,0.08,5.02,1.25c1.7,1.17,2.54,2.86,2.75,4.09 C255.05,135.9,254.78,136.68,254.57,136.68z" class="st5"/></g></g></g></g></g></g></g></g></g></g></g></g><g><g><g><g><g><g><g><g><path d="M235.98,96.57c0-0.81,2.74-1.44,5.68-2.94c2.97-1.45,5.12-3.26,5.76-2.78 c0.3,0.24,0.11,1.07-0.64,2.13c-0.74,1.06-2.08,2.3-3.85,3.18c-1.77,0.88-3.57,1.21-4.86,1.17 C236.76,97.3,235.99,96.95,235.98,96.57z" class="st5"/></g></g></g></g></g></g></g></g><g><g><g><g><g><g><g><g><path d="M264.42,91.17c0.73-0.48,2.88,0.71,5.63,1.4c2.73,0.77,5.2,0.8,5.58,1.58 c0.16,0.37-0.35,0.9-1.52,1.24c-1.15,0.34-2.94,0.42-4.83-0.08c-1.89-0.5-3.4-1.45-4.21-2.31 C264.26,92.12,264.09,91.41,264.42,91.17z" class="st5"/></g></g></g></g></g></g></g></g><g><g><g><g><path d="M217.82,111.67c-0.3-0.16-12.21-4.55-12.67,7.88c-0.46,12.43,12.11,10.33,12.15,9.97 C217.33,129.17,217.82,111.67,217.82,111.67z" class="st9"/></g></g></g></g><g><g><g><g><g><path d="M213.67,124.68c-0.05-0.04-0.22,0.14-0.59,0.3c-0.36,0.15-0.98,0.24-1.62-0.03 c-1.3-0.53-2.32-2.66-2.3-4.9c0.01-1.13,0.29-2.2,0.72-3.08c0.41-0.9,1.02-1.51,1.69-1.6 c0.66-0.13,1.12,0.29,1.26,0.64c0.15,0.35,0.07,0.6,0.13,0.62c0.03,0.03,0.27-0.2,0.19-0.72 c-0.04-0.25-0.18-0.55-0.46-0.8c-0.29-0.25-0.72-0.39-1.19-0.36c-0.96,0.03-1.86,0.88-2.33,1.84 c-0.53,0.97-0.87,2.17-0.88,3.44c-0.01,2.51,1.18,4.9,2.96,5.49c0.87,0.26,1.61,0.02,1.99-0.26 C213.64,124.97,213.71,124.7,213.67,124.68z" class="st10"/></g></g></g></g></g><g><g><g><g><path d="M272.48,76.11c2.04-1.05-3.81-7.74-8.69-10.12c-7.38-3.6-18.73-6.01-25.68-4.25 c-8.36,2.12-15.37,6.05-19.75,13.49c-4.38,7.43-6.19,16.19-6.19,24.81c0,2.63,0.19,5.38,1.54,7.65 c1.66,2.8,4.94,4.62,4.69,8.41c-0.09,1.38,0.26,2.79,1.18,3.83c2.21,2.48,5.05,0.29,6.4-1.95 c2.87-4.79,3.34-10.6,3.74-16.17c0.28-3.96,0.56-8.01-0.45-11.85c-0.55-2.09-1.47-4.08-1.9-6.19 c-0.43-2.12-0.3-4.5,1.06-6.18c0.22-0.27,0.58-0.62,1.04-0.99c3.61-2.99,8.56-3.77,12.93-2.09 c6.93,2.67,18.78,6.71,21.97,4.42c4.59-3.29,5.73-5.49,5.73-5.49L272.48,76.11z" class="st5"/></g></g></g></g></g></g><g><g><g><g><g><path d="M256.99,62.99c0.08-0.08,0.91,0.59,2.1,1.84c1.18,1.25,2.76,3.11,3.83,5.59 c1.07,2.49,1.17,5.05,0.75,6.76c-0.4,1.74-1.15,2.6-1.22,2.55c-0.13-0.07,0.39-1.01,0.61-2.66 c0.24-1.63,0.05-3.98-0.95-6.32c-1-2.34-2.44-4.2-3.49-5.53C257.57,63.9,256.9,63.07,256.99,62.99z" class="st6"/></g></g></g></g><g><g><g><g><path d="M265.46,69.18c0.1-0.04,0.46,0.56,0.72,1.64c0.26,1.08,0.33,2.66-0.09,4.32 c-0.43,1.66-1.25,3.01-2,3.84c-0.75,0.83-1.35,1.17-1.42,1.09c-0.19-0.18,1.81-2.03,2.57-5.15 C266.07,71.84,265.2,69.25,265.46,69.18z" class="st6"/></g></g></g></g></g></g></g></g><g><path d="M248.44,113.6c0.03,0.06-0.54,0.47-1.6,0.89c-1.05,0.42-2.61,0.8-4.35,0.78 c-1.74-0.02-3.29-0.42-4.34-0.87c-1.05-0.44-1.61-0.87-1.58-0.92c0.07-0.17,2.54,1.22,5.92,1.22 C245.88,114.77,248.38,113.43,248.44,113.6z" class="st10"/></g><g><path d="M244.9,116.93c0.03,0.06-0.4,0.34-1.19,0.57c-0.79,0.23-1.94,0.36-3.19,0.16c-1.25-0.21-2.3-0.7-2.97-1.18 c-0.68-0.47-0.99-0.87-0.95-0.92c0.1-0.14,1.64,1.17,4.01,1.54C242.97,117.51,244.85,116.76,244.9,116.93z" class="st10"/></g><g><path d="M277.11,111.98c0.05,0.03-0.31,0.72-1.24,1.53c-0.91,0.81-2.46,1.7-4.35,1.93 c-1.89,0.23-3.61-0.26-4.69-0.82c-1.1-0.57-1.62-1.14-1.57-1.19c0.06-0.07,0.65,0.37,1.74,0.82c1.07,0.45,2.69,0.84,4.45,0.63 c1.76-0.22,3.24-0.99,4.17-1.68C276.56,112.5,277.04,111.92,277.11,111.98z" class="st10"/></g></g><g><path d="M273.4,200.7c0.39,0.59,21.44,53.08,31.86,61.71c9.84-9.07,26.96-23.74,11.02-38.33l-29.77-42.99 L273.4,200.7z" class="st9"/><g><g><path d="M273.5,201.16c0.47,0.55-4.24-10.82-5.47-15.68c-0.71-2.83-3.34-8.3-1.77-12.22 c1.57-3.93,3.93-8.05,3.93-8.05l-6.48-5.5c0,0-13.74-3.14-14.72-5.5c-0.98-2.36,0-3.53,0-3.53l11.38,1.57 c0,0-15.9-9.22-10.99-15.31c0,0,7.61,5.92,13.17,7.03l8.62,4.75c0,0,1.57-0.71,1.18-5.85c-0.39-5.14-1.18-6.71-1.18-6.71 s-7.65-10.01-6.28-14.52l1.57-3.14l9.03,10.01l2.36,4.71c0,0-0.98-15.31,4.71-16.09l1.96,17.66l-1.96,12.46 c0,0,1.57,4.61,1.96,7.75c0.39,3.14,1.96,25.71,1.96,25.71l3.72,5.38" class="st9"/><g><path d="M290.2,186.1c0,0-0.09-0.11-0.26-0.33c-0.17-0.24-0.42-0.58-0.73-1.01c-0.65-0.92-1.59-2.25-2.81-3.98 l-0.01-0.02l0-0.03c-0.27-3.35-0.64-7.94-1.1-13.6c-0.22-2.84-0.47-5.94-0.74-9.29c-0.06-3.39-0.98-6.88-2.19-10.51 l-0.02-0.05l0.01-0.05c0.6-3.88,1.26-8.07,1.94-12.47l0,0.06c-0.62-5.48-1.28-11.42-1.99-17.66l0.28,0.22 c-1.34,0.17-2.32,1.34-2.9,2.62c-0.6,1.29-0.94,2.72-1.18,4.17c-0.46,2.92-0.55,5.97-0.4,9.04l0.06,1.27l-0.57-1.13 c-0.73-1.46-1.54-3.08-2.36-4.71l0.04,0.06c-2.86-3.17-5.92-6.55-9.03-10l0.46-0.06c-0.49,0.98-1.03,2.06-1.57,3.14l0.02-0.04 c-0.33,1.16-0.07,2.47,0.31,3.7c0.4,1.24,0.92,2.46,1.55,3.65c1.24,2.38,2.73,4.7,4.38,6.91l0.02,0.03l0.01,0.02 c0.58,1.49,0.79,3.06,1,4.68c0.15,1.39,0.31,2.78,0.26,4.2c-0.02,0.7-0.09,1.41-0.26,2.11c-0.09,0.35-0.19,0.7-0.36,1.03 c-0.18,0.34-0.34,0.65-0.77,0.92l-0.11,0.07l-0.14-0.08c-2.91-1.6-5.78-3.18-8.62-4.75l0.08,0.03 c-2.56-0.57-4.87-1.72-7.06-2.95c-2.19-1.25-4.25-2.64-6.22-4.13l0.38-0.04c-0.54,0.66-0.87,1.47-0.88,2.31 c-0.02,0.84,0.23,1.67,0.59,2.44c0.75,1.55,1.91,2.87,3.12,4.08c2.46,2.39,5.25,4.38,8.06,6.09l1.07,0.65l-1.24-0.17 c-3.92-0.55-7.71-1.07-11.38-1.58l0.22-0.09c-0.41,0.6-0.46,1.52-0.28,2.29c0.08,0.38,0.22,0.83,0.39,1.12 c0.19,0.29,0.54,0.54,0.88,0.76c1.41,0.85,2.99,1.41,4.52,1.94c3.08,1.04,6.13,1.85,9.07,2.55l0.05,0.01l0.04,0.03 c2.26,1.92,4.41,3.75,6.47,5.51l0.13,0.11l-0.08,0.14c-1.44,2.57-2.71,5.08-3.73,7.53c-1.13,2.41-0.65,5.03-0.09,7.25 c0.58,2.25,1.42,4.3,1.87,6.26c0.55,1.92,1.16,3.66,1.71,5.21c1.13,3.08,2,5.48,2.61,7.13c0.3,0.82,0.52,1.44,0.66,1.86 c0.07,0.21,0.12,0.37,0.14,0.48c0.01,0.06,0.02,0.1,0.01,0.13c-0.04,0.02-0.03-0.02-0.04-0.01c0.11,0.1-0.26-0.83-0.88-2.43 c-0.63-1.62-1.57-4-2.71-7.1c-0.56-1.55-1.19-3.28-1.76-5.21c-0.47-1.96-1.31-3.97-1.92-6.25c-0.3-1.14-0.55-2.34-0.62-3.62 c-0.09-1.26,0.13-2.62,0.68-3.85c1.02-2.47,2.28-5,3.72-7.59l0.04,0.25c-2.07-1.75-4.22-3.57-6.49-5.48l0.09,0.05 c-2.96-0.7-6.01-1.49-9.12-2.53c-1.55-0.54-3.13-1.08-4.62-1.98c-0.36-0.24-0.74-0.48-1.03-0.9 c-0.25-0.45-0.35-0.83-0.46-1.28c-0.18-0.87-0.21-1.85,0.38-2.71l0.07-0.11l0.15,0.02c3.67,0.5,7.46,1.02,11.39,1.56 l-0.16,0.48c-2.86-1.73-5.66-3.71-8.18-6.15c-1.24-1.23-2.43-2.58-3.24-4.22c-0.39-0.82-0.67-1.73-0.65-2.69 c0.01-0.96,0.39-1.9,0.99-2.64l0.17-0.21l0.21,0.16c1.94,1.46,4,2.85,6.16,4.08c2.16,1.22,4.45,2.35,6.9,2.89l0.05,0.01 l0.04,0.02c2.84,1.56,5.71,3.15,8.62,4.74l-0.25-0.01c0.15-0.09,0.38-0.39,0.5-0.66c0.14-0.28,0.24-0.6,0.32-0.91 c0.16-0.64,0.22-1.32,0.24-1.99c0.05-1.35-0.1-2.74-0.26-4.11c-0.2-1.57-0.44-3.2-0.94-4.49l0.03,0.05 c-1.67-2.25-3.17-4.58-4.43-7c-0.63-1.21-1.17-2.46-1.58-3.75c-0.39-1.28-0.69-2.66-0.31-4.03l0.01-0.02l0.01-0.02 c0.54-1.08,1.08-2.16,1.57-3.14l0.18-0.36l0.27,0.3c3.11,3.45,6.17,6.84,9.02,10.01l0.02,0.03l0.02,0.03 c0.81,1.63,1.62,3.25,2.35,4.71l-0.51,0.14c-0.14-3.12-0.05-6.18,0.42-9.16c0.25-1.48,0.6-2.95,1.23-4.31 c0.32-0.68,0.72-1.33,1.27-1.86c0.54-0.54,1.26-0.93,2.02-1.03l0.26-0.03l0.03,0.25c0.69,6.25,1.34,12.19,1.94,17.67l0,0.03 l0,0.03c-0.7,4.4-1.37,8.58-1.99,12.46l-0.01-0.1c0.6,1.83,1.12,3.63,1.52,5.4c0.19,0.88,0.37,1.77,0.45,2.64 c0.06,0.87,0.13,1.73,0.19,2.56c0.25,3.36,0.47,6.46,0.68,9.3c0.41,5.67,0.74,10.26,0.98,13.61l-0.02-0.04 c1.19,1.75,2.11,3.1,2.74,4.03c0.3,0.45,0.53,0.79,0.69,1.04C290.13,185.97,290.2,186.1,290.2,186.1z" class="st10"/></g></g><g><path d="M276.61,170.65c-0.06,0.11-1.84-0.63-3.75-2.08c-1.95-1.46-2.82-3.31-2.67-3.36 c0.14-0.08,1.16,1.52,3.02,2.91C275.05,169.52,276.71,170.49,276.61,170.65z" class="st10"/></g><g><path d="M271.79,184.49c-0.07,0.01-0.34-0.86-0.58-2.31c-0.23-1.45-0.39-3.5-0.15-5.75 c0.25-2.25,0.84-4.22,1.38-5.59c0.54-1.37,0.99-2.16,1.06-2.14c0.19,0.07-1.39,3.38-1.87,7.79 C271.16,180.89,272,184.46,271.79,184.49z" class="st10"/></g><g><path d="M278.88,159.31c-0.05,0.07-1.01-0.49-2.6-1.35c-1.58-0.86-3.8-1.99-6.35-3.01 c-2.55-1.02-4.94-1.7-6.7-2.08c-1.76-0.39-2.87-0.52-2.86-0.61c0-0.06,1.13-0.07,2.93,0.22c1.8,0.28,4.25,0.91,6.83,1.94 c2.58,1.03,4.79,2.23,6.34,3.19C278.03,158.56,278.92,159.25,278.88,159.31z" class="st10"/></g><g><path d="M282.36,153.61c-0.02,0.07-0.72-0.05-1.84-0.34c-1.11-0.29-2.64-0.74-4.27-1.43 c-3.27-1.39-5.52-3.21-5.43-3.31c0.1-0.15,2.46,1.43,5.66,2.79C279.68,152.64,282.42,153.43,282.36,153.61z" class="st10"/></g><g><path d="M282.56,147.26c-0.06,0.04-0.55-0.68-1.1-1.94c-0.56-1.26-1.18-3.06-1.78-5.07 c-0.6-2.01-1.09-3.83-1.45-5.15c-0.36-1.32-0.59-2.13-0.52-2.16c0.07-0.03,0.44,0.74,0.9,2.04c0.46,1.3,1.01,3.11,1.61,5.11 c0.6,2,1.15,3.8,1.61,5.08C282.27,146.45,282.63,147.22,282.56,147.26z" class="st10"/></g></g></g><g><g><g><path d="M223.49,196.88c0,0,5.95-2.74,6.76-9.66c0.8-6.92,1.45-15.29,1.45-15.29s1.77-3.06,2.09-4.35 c0.32-1.29,18.11-11.27,18.11-11.27s0.63-2.7-4.59-2.41c-5.22,0.29-14.97,4.99-14.97,4.99l2.9-8.69c0,0,5.41-5.23,8.07-9.88 c1.3-2.27,0.76-5.15-1.28-6.8l-0.47-0.38c0,0-0.05-3.06-1.66-3.7c0,0-13.68,7.72-14.16,8.69c-0.48,0.97,6.44-10.46-2.25-12.87 l-5.15,13.84l-2.06,4.98l0,0c0,0-0.87,8.81-1.19,11.71c-0.32,2.9-1.73,23.87-3.67,26.92" class="st9"/><g><path d="M211.42,182.72c0,0,0.08-0.23,0.26-0.65c0.15-0.43,0.36-1.09,0.53-1.97c0.38-1.75,0.77-4.36,1.16-7.72 c0.39-3.36,0.77-7.47,1.16-12.23c0.35-4.77,0.97-10.16,1.53-16.09l0-0.03l0.01-0.03c0.58-1.4,1.17-2.85,1.78-4.33 c0.6-1.49,1.14-3.05,1.74-4.62c1.17-3.16,2.39-6.46,3.66-9.87l0.08-0.22l0.23,0.06c1.21,0.34,2.44,0.93,3.3,1.96 c0.88,1.02,1.27,2.39,1.3,3.71c0.04,1.34-0.22,2.66-0.61,3.94c-0.2,0.64-0.43,1.27-0.69,1.89c-0.13,0.31-0.27,0.62-0.42,0.92 l-0.23,0.46l-0.12,0.23l-0.07,0.12l-0.04,0.06c-0.01,0.01-0.01,0.02-0.04,0.06l-0.02,0.02c-0.35,0.22-0.6-0.58-0.45-0.27 l0.02-0.06c0.27-0.4,0.57-0.57,0.84-0.78l0.85-0.58c0.57-0.38,1.15-0.74,1.73-1.11c1.17-0.72,2.35-1.44,3.55-2.15 c2.4-1.42,4.84-2.83,7.33-4.24l0.12-0.07l0.12,0.05c0.75,0.32,1.19,1.04,1.43,1.74c0.25,0.71,0.37,1.45,0.4,2.22l-0.1-0.22 c0.62,0.47,1.31,1.1,1.75,1.86c0.45,0.77,0.75,1.65,0.79,2.56c0.04,0.71-0.05,1.43-0.27,2.1c-0.21,0.69-0.61,1.27-0.95,1.84 c-0.72,1.14-1.52,2.22-2.35,3.26c-1.66,2.08-3.43,4.02-5.28,5.85l0.07-0.11c-0.98,2.95-1.95,5.84-2.9,8.69l-0.38-0.33 c3.49-1.63,6.97-3.05,10.48-4.1c1.75-0.5,3.54-0.91,5.35-0.92c0.9,0.01,1.81,0.09,2.67,0.45c0.42,0.19,0.83,0.47,1.11,0.88 c0.28,0.41,0.4,0.9,0.31,1.42l-0.02,0.1l-0.1,0.06c-4.3,2.42-8.36,4.75-12.1,7.02c-1.86,1.14-3.68,2.24-5.28,3.46 c-0.19,0.15-0.39,0.31-0.54,0.48c-0.09,0.12-0.09,0.07-0.14,0.24c-0.04,0.13-0.08,0.25-0.12,0.37 c-0.18,0.48-0.39,0.93-0.61,1.38c-0.44,0.88-0.9,1.73-1.37,2.54l0.03-0.08c-0.42,4.28-0.8,8.13-1.13,11.52 c-0.08,0.84-0.16,1.66-0.24,2.44c-0.07,0.78-0.15,1.54-0.29,2.26c-0.29,1.44-0.8,2.69-1.4,3.73c-1.22,2.08-2.69,3.3-3.69,4.02 c-0.51,0.36-0.92,0.6-1.21,0.75c-0.28,0.15-0.44,0.2-0.44,0.2c0-0.01,0.14-0.08,0.41-0.25c0.27-0.16,0.67-0.42,1.17-0.79 c0.98-0.75,2.4-1.98,3.57-4.04c0.57-1.03,1.06-2.26,1.33-3.67c0.13-0.7,0.2-1.46,0.27-2.24c0.07-0.79,0.14-1.6,0.22-2.45 c0.31-3.38,0.66-7.24,1.05-11.52l0-0.04l0.02-0.04c0.46-0.81,0.91-1.65,1.34-2.53c0.21-0.44,0.42-0.88,0.58-1.34 c0.04-0.11,0.08-0.23,0.11-0.34c0.01-0.08,0.14-0.35,0.23-0.4c0.19-0.21,0.39-0.37,0.59-0.53c1.64-1.26,3.45-2.35,5.31-3.51 c3.74-2.29,7.79-4.64,12.09-7.07l-0.12,0.16c0.13-0.71-0.4-1.43-1.14-1.72c-0.75-0.31-1.61-0.39-2.47-0.4 c-1.73,0.01-3.47,0.41-5.2,0.91c-3.46,1.04-6.93,2.47-10.39,4.08l-0.58,0.27l0.2-0.61c0.95-2.85,1.91-5.75,2.89-8.69 l0.02-0.06l0.05-0.05c1.82-1.81,3.58-3.74,5.23-5.8c0.82-1.03,1.6-2.1,2.31-3.21c0.34-0.57,0.71-1.11,0.89-1.72 c0.2-0.6,0.28-1.25,0.25-1.88c-0.04-0.82-0.31-1.62-0.71-2.31c-0.42-0.7-0.97-1.22-1.63-1.71l-0.1-0.08l-0.01-0.14 c-0.03-0.69-0.14-1.41-0.37-2.04c-0.22-0.63-0.6-1.19-1.11-1.41l0.24-0.02c-2.49,1.41-4.93,2.82-7.33,4.23 c-1.2,0.71-2.38,1.42-3.54,2.14c-0.58,0.36-1.15,0.72-1.72,1.09l-0.83,0.57c-0.26,0.2-0.54,0.41-0.66,0.56 c0.04,0-0.07-0.05-0.17-0.07c-0.06,0-0.09-0.04-0.11-0.04c-0.03-0.04-0.07-0.07-0.1-0.1c-0.11-0.09-0.09-0.04-0.09-0.05 l0.01-0.01l0.03-0.04l0.06-0.1l0.12-0.21l0.22-0.44c0.15-0.3,0.28-0.6,0.41-0.9c0.26-0.6,0.49-1.22,0.68-1.84 c0.38-1.24,0.62-2.52,0.59-3.77c-0.03-1.25-0.39-2.48-1.17-3.39c-0.77-0.92-1.89-1.48-3.04-1.81l0.31-0.16 c-1.27,3.41-2.51,6.71-3.69,9.86c-0.6,1.57-1.14,3.13-1.76,4.62c-0.62,1.48-1.22,2.93-1.81,4.33l0.02-0.06 c-0.59,5.94-1.24,11.31-1.62,16.07c-0.42,4.76-0.84,8.87-1.26,12.23c-0.42,3.36-0.86,5.97-1.28,7.72 c-0.19,0.88-0.43,1.53-0.59,1.96C211.54,182.51,211.42,182.72,211.42,182.72z" class="st10"/></g></g><g><path d="M233.18,158.52c0.06,0.14-1.06,0.79-2.5,1.44c-1.45,0.65-2.67,1.07-2.74,0.92 c-0.06-0.14,1.06-0.79,2.5-1.44C231.89,158.79,233.12,158.37,233.18,158.52z" class="st10"/></g><g><path d="M241.54,132.93c0.03,0.02-0.11,0.38-0.44,1.01c-0.33,0.63-0.87,1.51-1.63,2.53 c-1.5,2.06-4.04,4.51-6.85,7.13c-2.84,2.58-4.69,5.56-5.69,7.85c-1.02,2.29-1.4,3.81-1.5,3.79c-0.04-0.01,0.03-0.4,0.19-1.09 c0.17-0.69,0.46-1.68,0.94-2.86c0.92-2.36,2.77-5.48,5.67-8.1c2.83-2.62,5.37-4.99,6.93-6.96 C240.75,134.29,241.46,132.88,241.54,132.93z" class="st10"/></g><g><path d="M225.97,137.9c0.07,0.04-0.41,0.88-1.29,2.13c-0.43,0.63-0.91,1.39-1.37,2.28 c-0.5,0.86-0.74,1.91-1.08,3.05c-0.79,2.2-1.14,4.27-1.56,5.77c-0.39,1.5-0.8,2.37-0.87,2.35c-0.08-0.03,0.19-0.93,0.48-2.44 c0.31-1.48,0.61-3.63,1.41-5.84c0.32-1.1,0.61-2.24,1.16-3.14c0.5-0.89,1.03-1.66,1.51-2.27 C225.32,138.6,225.9,137.86,225.97,137.9z" class="st10"/></g></g><path d="M164.66,238.91c0.53-0.8,15.38-15.17,19.66-19.96c4.28-4.79,25.78-32.09,27.11-36.23 c1.33-4.14,13.55,11.74,13.55,11.74l0,0c0,0-14.85,35.5-20.7,45.62C198.41,250.2,188.91,269,188.91,269s-15.73,1.33-21.85-11.45 C160.93,244.77,164.66,238.91,164.66,238.91z" class="st9"/></g><g><g><g><g><g><g><g><path d="M223.44,423.45l20,48.9l-60.71,25.19c-2.05-5.95,24.52-30.62,24.52-30.62l-14.1-30.8L223.44,423.45z" class="st7"/></g></g></g></g></g><g class="st11"><g><g><g><g><g><path d="M224.93,456.49c1.31-0.17,2.67,0.82,2.89,2.12c0.22,1.3-0.77,2.69-2.07,2.88 c-1.3,0.19-2.97-0.94-3.05-2.26c-0.07-1.32,1.18-2.89,2.49-2.76" class="st4"/></g></g></g></g></g></g><g class="st11"><g><g><g><g><path d="M243.43,472.34l-2.21-4.85l-57.38,25.97c0,0-2.21,2.3-1.12,4.07L243.43,472.34z" class="st4"/></g></g></g></g></g><g><g><g><g><g><g><path d="M206.14,467.01c0.13,0.29,1.67-0.19,3.52,0.16c1.86,0.3,3.15,1.27,3.37,1.04 c0.25-0.17-0.93-1.76-3.18-2.14C207.61,465.67,205.96,466.77,206.14,467.01z" class="st5"/></g></g></g></g></g></g><g><g><g><g><g><g><path d="M200.86,472.29c0.05,0.32,1.54,0.29,3.07,1.12c1.55,0.79,2.37,2.04,2.66,1.91 c0.3-0.07-0.22-1.89-2.14-2.89C202.55,471.4,200.75,472,200.86,472.29z" class="st5"/></g></g></g></g></g></g><g><g><g><g><g><g><path d="M200.41,481.41c0.3-0.05,0.09-1.7-1.34-3.01c-1.43-1.32-3.09-1.38-3.11-1.08 c-0.07,0.31,1.2,0.81,2.36,1.9C199.5,480.29,200.1,481.5,200.41,481.41z" class="st5"/></g></g></g></g></g></g><g><g><g><g><g><g><path d="M203.7,459.64c0.24,0.22,1.43-0.75,3.15-1.34c1.71-0.62,3.25-0.59,3.3-0.91 c0.08-0.29-1.65-0.85-3.67-0.14C204.46,457.94,203.46,459.46,203.7,459.64z" class="st5"/></g></g></g></g></g></g><g><g><g><g><g><g><path d="M202.16,451.83c0.05,0.12,1.29-0.18,3.03-1.28c0.86-0.55,1.84-1.31,2.78-2.3 c0.47-0.5,0.93-1.05,1.36-1.65c0.2-0.3,0.46-0.61,0.62-1.1c0.2-0.45,0.06-1.31-0.52-1.63c-0.5-0.34-1.14-0.31-1.58-0.14 c-0.45,0.17-0.78,0.41-1.08,0.63c-0.61,0.44-1.15,0.93-1.62,1.43c-0.94,1.01-1.61,2.07-2.04,3 c-0.87,1.89-0.89,3.2-0.76,3.21c0.17,0.04,0.48-1.17,1.46-2.84c0.49-0.83,1.18-1.76,2.08-2.65 c0.45-0.44,0.96-0.87,1.52-1.26c0.57-0.44,1.12-0.67,1.4-0.45c0.11,0.08,0.13,0.12,0.07,0.37 c-0.07,0.23-0.26,0.51-0.46,0.8c-0.39,0.57-0.81,1.1-1.23,1.58c-0.84,0.96-1.7,1.74-2.47,2.35 C203.2,451.12,202.09,451.67,202.16,451.83z" class="st5"/></g></g></g></g></g></g><g><g><g><g><g><g><path d="M202.72,452.1c0.12,0,0.27-1.3-0.42-3.27c-0.34-0.97-0.92-2.09-1.8-3.16 c-0.44-0.53-0.95-1.05-1.54-1.52c-0.6-0.45-1.37-1.08-2.58-0.73c-0.61,0.23-0.91,0.9-0.92,1.37 c-0.03,0.49,0.08,0.86,0.15,1.24c0.18,0.76,0.48,1.45,0.85,2.05c0.73,1.21,1.7,2.07,2.6,2.6 c1.84,1.08,3.22,0.92,3.21,0.81c0.04-0.19-1.23-0.33-2.77-1.47c-0.76-0.56-1.56-1.38-2.15-2.46 c-0.29-0.54-0.53-1.14-0.67-1.78c-0.17-0.68-0.15-1.31,0.12-1.34c0.3-0.13,1.01,0.14,1.48,0.55 c0.54,0.42,1.02,0.87,1.44,1.34c0.84,0.94,1.44,1.92,1.85,2.79C202.4,450.88,202.54,452.12,202.72,452.1z" class="st5"/></g></g></g></g></g></g></g></g><g><g><g><g><g><g><g><path d="M322.61,426.05l-1.66,52.8l65.68,2.41c-0.15-6.29-33.67-20.13-33.67-20.13l2.45-33.79L322.61,426.05z" class="st7"/></g></g></g></g></g><g class="st11"><g><g><g><g><g><path d="M332.75,457.53c-1.28,0.3-2.21,1.7-1.97,2.99c0.25,1.3,1.66,2.25,2.95,1.98 c1.29-0.28,2.46-1.92,2.07-3.18c-0.39-1.26-2.11-2.29-3.3-1.71" class="st4"/></g></g></g></g></g></g><g class="st11"><g><g><g><g><path d="M320.95,478.85l0.38-5.32l62.83,4.29c0,0,2.88,1.38,2.47,3.43L320.95,478.85z" class="st4"/></g></g></g></g></g><g><g><g><g><g><g><path d="M354.04,460.83c-0.02,0.32-1.63,0.41-3.25,1.38c-1.64,0.93-2.51,2.29-2.8,2.15 c-0.29-0.07,0.26-1.97,2.23-3.12C352.19,460.08,354.12,460.54,354.04,460.83z" class="st5"/></g></g></g></g></g></g><g><g><g><g><g><g><path d="M360.82,463.93c0.06,0.31-1.35,0.81-2.49,2.12c-1.18,1.28-1.51,2.74-1.83,2.71 c-0.3,0.04-0.46-1.85,0.99-3.46C358.93,463.69,360.83,463.62,360.82,463.93z" class="st5"/></g></g></g></g></g></g><g><g><g><g><g><g><path d="M364.43,472.32c-0.29,0.06-0.68-1.56,0.21-3.29c0.88-1.73,2.41-2.37,2.54-2.1 c0.17,0.27-0.84,1.18-1.54,2.61C364.89,470.95,364.75,472.3,364.43,472.32z" class="st5"/></g></g></g></g></g></g><g><g><g><g><g><g><path d="M353.74,453.07c-0.15,0.29-1.6-0.21-3.42-0.15c-1.82,0.02-3.25,0.58-3.41,0.3 c-0.18-0.24,1.24-1.38,3.39-1.41C352.44,451.74,353.91,452.82,353.74,453.07z" class="st5"/></g></g></g></g></g></g><g><g><g><g><g><g><path d="M352.46,445.22c0,0.13-1.28,0.28-3.29-0.14c-1-0.21-2.18-0.58-3.4-1.18 c-0.61-0.3-1.24-0.66-1.85-1.07c-0.3-0.21-0.65-0.42-0.96-0.81c-0.34-0.35-0.51-1.21-0.08-1.71 c0.35-0.49,0.96-0.69,1.43-0.68c0.48,0,0.87,0.11,1.23,0.22c0.73,0.2,1.4,0.47,2.02,0.78c1.23,0.62,2.23,1.38,2.96,2.1 c1.47,1.47,1.95,2.68,1.84,2.74c-0.15,0.1-0.85-0.93-2.36-2.15c-0.75-0.61-1.72-1.24-2.87-1.76 c-0.58-0.26-1.2-0.48-1.87-0.65c-0.69-0.21-1.28-0.23-1.47,0.07c-0.07,0.12-0.08,0.16,0.06,0.37 c0.14,0.19,0.42,0.39,0.71,0.59c0.57,0.4,1.14,0.75,1.7,1.06c1.13,0.61,2.21,1.04,3.14,1.34 C351.24,444.91,352.47,445.04,352.46,445.22z" class="st5"/></g></g></g></g></g></g><g><g><g><g><g><g><path d="M352.03,445.66c-0.12,0.05-0.71-1.13-0.75-3.21c-0.02-1.03,0.14-2.28,0.58-3.58 c0.23-0.65,0.53-1.32,0.91-1.97c0.41-0.63,0.91-1.49,2.16-1.58c0.65,0,1.17,0.53,1.34,0.97c0.2,0.45,0.23,0.84,0.29,1.22 c0.09,0.77,0.05,1.52-0.08,2.22c-0.26,1.39-0.87,2.53-1.53,3.35c-1.35,1.66-2.7,1.99-2.72,1.88 c-0.1-0.16,1.04-0.74,2.08-2.34c0.51-0.79,0.98-1.84,1.15-3.05c0.09-0.61,0.1-1.25,0.01-1.9 c-0.08-0.7-0.32-1.27-0.58-1.21c-0.33-0.02-0.9,0.49-1.19,1.04c-0.36,0.58-0.65,1.17-0.88,1.75 c-0.46,1.17-0.68,2.3-0.76,3.26C351.91,444.4,352.2,445.62,352.03,445.66z" class="st5"/></g></g></g></g></g></g></g></g><g><path d="M193.82,259.43c0.02-0.01,0.1,0.1,0.23,0.33c0.12,0.23,0.36,0.55,0.54,1.02c0.42,0.91,0.83,2.36,0.79,4.17 c-0.03,1.82-0.66,3.94-1.75,6.05c-1.11,2.11-2.7,4.21-4.55,6.21c-3.69,4.03-7.71,7.03-10.85,8.73c-1.56,0.87-2.88,1.48-3.8,1.86 c-0.92,0.38-1.45,0.56-1.46,0.53c-0.02-0.04,0.48-0.28,1.37-0.73c0.89-0.44,2.17-1.1,3.69-2.01c3.06-1.78,6.98-4.78,10.63-8.77 c1.83-1.98,3.4-4.03,4.51-6.07c1.09-2.04,1.74-4.08,1.82-5.82c0.09-1.75-0.24-3.16-0.6-4.07 C194.03,259.95,193.77,259.46,193.82,259.43z" class="st5"/></g><g><path d="M192.89,267.79c0.01,0.02-0.15,0.1-0.45,0.25c-0.31,0.13-0.74,0.39-1.36,0.58 c-1.19,0.46-3.03,0.89-5.33,0.96c-2.3,0.08-5.06-0.33-7.9-1.43c-2.83-1.11-5.73-2.98-8.01-5.67c-1.13-1.34-2.12-2.74-2.99-4.14 c-0.83-1.43-1.56-2.85-2.1-4.27c-1.1-2.83-1.55-5.58-1.59-7.87c-0.01-2.3,0.34-4.14,0.72-5.36c0.15-0.62,0.37-1.08,0.48-1.39 c0.12-0.31,0.2-0.47,0.21-0.47c0.05,0.02-0.19,0.68-0.48,1.91c-0.31,1.22-0.59,3.05-0.53,5.3c0.08,2.25,0.57,4.92,1.67,7.69 c0.55,1.39,1.27,2.78,2.09,4.17c0.86,1.37,1.83,2.75,2.94,4.06c2.21,2.62,5.02,4.45,7.77,5.56c2.76,1.1,5.45,1.54,7.7,1.52 c2.25-0.02,4.06-0.38,5.26-0.77C192.22,268.03,192.86,267.74,192.89,267.79z" class="st5"/></g><g><path d="M313.35,276.93c-0.02,0.03-0.36-0.2-0.95-0.65c-0.59-0.45-1.43-1.11-2.46-1.93 c-2.05-1.68-4.94-3.88-7.86-6.7c-0.72-0.72-1.39-1.46-1.97-2.22c-0.62-0.75-1.02-1.68-1.24-2.53c-0.46-1.73-0.52-3.33-0.52-4.65 c0.01-1.33,0.12-2.4,0.23-3.13c0.11-0.73,0.22-1.13,0.26-1.12c0.09,0.01-0.17,1.63-0.09,4.25c0.05,1.3,0.15,2.87,0.62,4.51 c0.39,1.67,1.72,3.06,3.11,4.49c2.87,2.77,5.74,5.05,7.71,6.79c0.99,0.86,1.79,1.57,2.34,2.07 C313.08,276.61,313.37,276.9,313.35,276.93z" class="st5"/></g><g><path d="M322.83,230.04c0.03,0,0.14,0.54,0.24,1.54c0.1,1,0.15,2.45,0.03,4.24c-0.25,3.54-1.35,8.61-4.68,13.07 c-3.37,4.28-6.47,8.15-9.19,10.51c-1.33,1.2-2.49,2.07-3.3,2.65c-0.82,0.57-1.29,0.86-1.31,0.83c-0.02-0.03,0.4-0.38,1.18-1.01 c0.77-0.63,1.88-1.55,3.16-2.77c2.61-2.41,5.65-6.29,9.01-10.55c3.23-4.34,4.38-9.28,4.73-12.77 C323.04,232.25,322.71,230.05,322.83,230.04z" class="st5"/></g><g><path d="M331.18,239.62c-0.12-0.03,0.52-1.48,0.42-3.92c-0.06-1.21-0.33-2.65-0.93-4.13c-0.61-1.48-1.55-3-2.89-4.27 c-2.79-2.44-6.06-3.7-8.46-4.02c-2.42-0.33-3.93,0.13-3.95,0.01c-0.01-0.03,0.35-0.17,1.04-0.3c0.68-0.14,1.7-0.22,2.95-0.11 c2.49,0.23,5.89,1.45,8.8,4c2.85,2.7,3.83,6.32,3.83,8.8c0.01,1.26-0.21,2.26-0.4,2.93 C331.38,239.29,331.21,239.64,331.18,239.62z" class="st5"/></g><g><g><g><path d="M209.09,307.32c0,0-24.4-21.64-35.11-21.46c-10.71,0.18-45.83-2.15-31.1,46.51 c14.85,49.07,41.44,124.09,42.16,121.4l45.76-20.11l-18.59-69.79c0,0,62.37,0.7,74.42-0.88c12.04-1.58,34.57-17.44,34.57-17.44 l-3.58,88.18l47.82-2.66c0,0,6.71-105.93,8.65-127.7c1.68-18.96-19.62-40.23-41.34-35.43c-14.19,3.13-64.91,38.94-64.91,38.94 L209.09,307.32z" class="st5"/></g><g><g><path d="M322.85,298.66c0.06,0.01,0.03,0.83-0.05,2.31c-0.08,1.63-0.19,3.74-0.32,6.28 c-0.25,5.3-0.42,12.63-0.54,20.73c-0.13,8.1-0.28,15.45-0.56,20.76c-0.13,2.66-0.29,4.8-0.43,6.28 c-0.14,1.48-0.25,2.3-0.3,2.29c-0.06,0-0.06-0.83-0.01-2.31c0.04-1.63,0.1-3.74,0.17-6.28c0.09-5.46,0.2-12.72,0.33-20.75 c0.13-8.11,0.39-15.45,0.78-20.75c0.19-2.65,0.39-4.8,0.58-6.27C322.66,299.47,322.79,298.65,322.85,298.66z" class="st6"/></g></g><g><g><path d="M320.91,339.95c-0.07,0.06-0.96-0.85-2.11-2.55c-1.15-1.69-2.49-4.22-3.42-7.22 c-0.93-3-1.26-5.84-1.28-7.89c-0.02-2.05,0.2-3.3,0.29-3.29c0.26-0.01-0.11,5.08,1.76,10.94 C317.94,335.83,321.13,339.81,320.91,339.95z" class="st6"/></g></g><g><g><path d="M255.84,357.82c-0.08,0.01-0.18-1.21-0.55-3.36c-0.34-2.16-1.09-5.25-2.51-8.88 c-1.41-3.63-3.69-7.73-6.91-11.74c-3.26-3.98-7.56-7.77-12.8-10.62c-10.37-6.01-19.5-11.9-25.87-16.5 c-3.19-2.3-5.69-4.27-7.35-5.71c-0.84-0.7-1.46-1.3-1.88-1.7c-0.42-0.4-0.63-0.62-0.61-0.64c0.05-0.05,0.96,0.74,2.69,2.1 c1.71,1.37,4.26,3.26,7.48,5.49c6.43,4.47,15.59,10.27,25.95,16.27c2.59,1.49,5.11,3.1,7.25,4.98 c2.16,1.86,4.07,3.84,5.72,5.87c3.24,4.1,5.51,8.3,6.87,12c1.37,3.7,2.04,6.85,2.29,9.04c0.19,1.09,0.17,1.95,0.23,2.52 C255.86,357.51,255.86,357.82,255.84,357.82z" class="st6"/></g></g><g><g><path d="M272.71,306.15c0.05,0.02-0.24,0.75-0.79,2.04c-0.57,1.28-1.34,3.17-2.22,5.52 c-1.78,4.69-3.82,11.35-5.07,18.9c-1.24,7.56-1.44,14.52-1.26,19.53c0.08,2.51,0.21,4.54,0.34,5.94 c0.11,1.4,0.15,2.18,0.1,2.19c-0.06,0.01-0.2-0.76-0.41-2.16c-0.22-1.39-0.44-3.43-0.59-5.95 c-0.32-5.04-0.21-12.06,1.04-19.69c1.27-7.62,3.41-14.31,5.34-18.98c0.96-2.34,1.81-4.2,2.47-5.44 C272.28,306.81,272.66,306.13,272.71,306.15z" class="st6"/></g></g></g><g><path d="M180.98,299.81c0.01-0.02,0.24,0.13,0.66,0.43c0.46,0.34,1.07,0.78,1.83,1.34c0.4,0.3,0.84,0.62,1.32,0.98 c0.47,0.37,0.93,0.83,1.46,1.3c1.02,0.95,2.26,1.97,3.4,3.33c0.59,0.66,1.21,1.34,1.85,2.06c0.6,0.76,1.18,1.57,1.81,2.4 c0.31,0.42,0.63,0.84,0.95,1.27c0.3,0.44,0.58,0.91,0.88,1.38c0.58,0.94,1.21,1.89,1.79,2.9c2.3,4.06,4.34,8.78,6.14,13.85 c1.8,5.07,3.17,10,4.39,14.49c1.19,4.48,2.27,8.52,3.18,11.93c0.93,3.39,1.68,6.13,2.24,8.01c0.26,0.9,0.46,1.63,0.62,2.18 c0.14,0.5,0.2,0.77,0.18,0.77c-0.02,0.01-0.12-0.25-0.29-0.74c-0.18-0.54-0.42-1.26-0.72-2.15c-0.63-1.86-1.44-4.59-2.42-7.97 c-0.94-3.41-2.06-7.44-3.3-11.9c-1.25-4.47-2.63-9.39-4.42-14.44c-1.79-5.04-3.8-9.73-6.06-13.78 c-0.57-1.01-1.19-1.95-1.76-2.89c-0.29-0.46-0.56-0.93-0.86-1.37c-0.31-0.43-0.62-0.85-0.93-1.26c-0.61-0.83-1.19-1.64-1.77-2.4 c-0.63-0.72-1.23-1.41-1.81-2.07c-1.11-1.36-2.32-2.39-3.31-3.37c-0.51-0.47-0.96-0.94-1.42-1.32c-0.46-0.37-0.89-0.7-1.28-1.01 c-0.73-0.59-1.32-1.06-1.76-1.42C181.17,300.01,180.96,299.83,180.98,299.81z" class="st6"/></g></g><g><path d="M208.59,306.88c8.71,5.75,18.29,7.1,28.54,9.06c5.91,1.13,12.1,2.16,17.87,0.45 c12.37-3.65,24.33-17.73,32.28-22.76l-24.64-7.67L208.59,306.88z" class="st7"/><g><path d="M226.14,312.6c-0.14-0.06,0.78-2.67,2.07-5.83c1.29-3.16,2.45-5.68,2.59-5.62 c0.14,0.06-0.78,2.67-2.07,5.83C227.45,310.14,226.29,312.66,226.14,312.6z" class="st4"/></g><g><path d="M258.81,310.48c-0.06,0.14-2.12-0.58-4.61-1.62c-2.49-1.04-4.45-1.99-4.39-2.14 c0.06-0.14,2.12,0.58,4.61,1.62C256.91,309.38,258.87,310.34,258.81,310.48z" class="st4"/></g><g><path d="M267.24,295.36c0,0.16-2.44,0.25-5.44,0.2c-3-0.04-5.44-0.21-5.44-0.36c0-0.16,2.44-0.25,5.44-0.2 C264.81,295.04,267.24,295.2,267.24,295.36z" class="st4"/></g></g></g></g></svg>